<svg width="181" height="53" viewBox="0 0 181 53" fill="none" xmlns="http://www.w3.org/2000/svg">
<path d="M179.702 46.7301C179.702 49.5338 177.404 51.8048 174.562 51.8048H6.34037C3.49934 51.8048 1.19326 49.5338 1.19326 46.7301V6.26057C1.19326 3.4582 3.49934 1.1792 6.34037 1.1792H174.56C177.404 1.1792 179.701 3.4582 179.701 6.26057L179.702 46.7301Z" fill="black"/>
<path d="M40.3938 26.2137C40.355 21.9432 43.9321 19.8656 44.0956 19.7689C42.0698 16.8499 38.9297 16.4511 37.8263 16.4193C35.1891 16.145 32.6309 17.9788 31.2875 17.9788C29.9173 17.9788 27.8485 16.4458 25.6189 16.4909C22.7497 16.5346 20.0655 18.1763 18.5934 20.7256C15.5553 25.9235 17.8211 33.5622 20.7319 37.7637C22.1879 39.8215 23.8893 42.119 26.1163 42.0382C28.295 41.9494 29.1088 40.6655 31.738 40.6655C34.3431 40.6655 35.1073 42.0382 37.3785 41.9865C39.7168 41.9494 41.1889 39.9195 42.594 37.8432C44.2766 35.4847 44.9524 33.162 44.9792 33.0428C44.9242 33.0242 40.4381 31.3322 40.3938 26.2137Z" fill="white"/>
<path d="M36.1035 13.6555C37.2753 12.2072 38.077 10.237 37.8545 8.23755C36.1584 8.31175 34.0374 9.39692 32.816 10.8133C31.7353 12.0615 30.77 14.1073 31.0194 16.0312C32.9246 16.1716 34.8807 15.0812 36.1035 13.6555Z" fill="white"/>
<path d="M71.924 41.7427H68.8792L67.2113 36.5633H61.414L59.8252 41.7427H56.8608L62.6046 24.1096H66.1522L71.924 41.7427ZM66.7086 34.3903L65.2002 29.7859C65.0407 29.3155 64.7417 28.2078 64.3006 26.4641H64.247C64.0713 27.2141 63.7884 28.3218 63.3996 29.7859L61.9181 34.3903H66.7086Z" fill="white"/>
<path d="M86.695 35.2291C86.695 37.3915 86.1037 39.1008 84.9212 40.3555C83.862 41.4725 82.5467 42.0303 80.9767 42.0303C79.282 42.0303 78.0646 41.4288 77.3232 40.2257H77.2696V46.9236H74.4111V33.2138C74.4111 31.8543 74.3749 30.4591 74.3052 29.0281H76.8191L76.9786 31.0434H77.0323C77.9855 29.525 79.4322 28.7671 81.3736 28.7671C82.8913 28.7671 84.1583 29.3594 85.1719 30.5452C86.1882 31.7324 86.695 33.2933 86.695 35.2291ZM83.7829 35.3325C83.7829 34.0949 83.5013 33.0747 82.9355 32.2717C82.3175 31.4343 81.4875 31.0156 80.4471 31.0156C79.7419 31.0156 79.101 31.2488 78.5285 31.7086C77.9547 32.1723 77.5793 32.7779 77.4037 33.5278C77.3152 33.8776 77.2709 34.1638 77.2709 34.3891V36.5091C77.2709 37.4339 77.5578 38.2143 78.1317 38.8517C78.7055 39.489 79.451 39.807 80.368 39.807C81.4446 39.807 82.2826 39.3962 82.8819 38.5774C83.4826 37.7572 83.7829 36.676 83.7829 35.3325Z" fill="white"/>
<path d="M101.493 35.2291C101.493 37.3915 100.901 39.1008 99.7176 40.3555C98.6598 41.4725 97.3445 42.0303 95.7745 42.0303C94.0798 42.0303 92.8624 41.4288 92.1223 40.2257H92.0687V46.9236H89.2102V33.2138C89.2102 31.8543 89.174 30.4591 89.1043 29.0281H91.6182L91.7777 31.0434H91.8314C92.7833 29.525 94.23 28.7671 96.1727 28.7671C97.6891 28.7671 98.9561 29.3594 99.9723 30.5452C100.985 31.7324 101.493 33.2933 101.493 35.2291ZM98.5807 35.3325C98.5807 34.0949 98.2978 33.0747 97.732 32.2717C97.1139 31.4343 96.2866 31.0156 95.2449 31.0156C94.5383 31.0156 93.8988 31.2488 93.3249 31.7086C92.7511 32.1723 92.377 32.7779 92.2014 33.5278C92.1143 33.8776 92.0687 34.1638 92.0687 34.3891V36.5091C92.0687 37.4339 92.3556 38.2143 92.9267 38.8517C93.5006 39.4877 94.246 39.807 95.1658 39.807C96.2424 39.807 97.0804 39.3962 97.6797 38.5774C98.2803 37.7572 98.5807 36.676 98.5807 35.3325Z" fill="white"/>
<path d="M118.037 36.7979C118.037 38.2978 117.511 39.5181 116.453 40.4602C115.29 41.4897 113.672 42.0038 111.593 42.0038C109.673 42.0038 108.133 41.6381 106.968 40.9054L107.631 38.5509C108.886 39.3008 110.263 39.6771 111.763 39.6771C112.839 39.6771 113.677 39.436 114.279 38.9563C114.879 38.4767 115.178 37.8327 115.178 37.0298C115.178 36.3143 114.931 35.7114 114.436 35.2225C113.944 34.7335 113.122 34.2791 111.975 33.859C108.851 32.7076 107.29 31.0209 107.29 28.8028C107.29 27.3533 107.837 26.1648 108.933 25.2399C110.024 24.3137 111.48 23.8513 113.301 23.8513C114.924 23.8513 116.273 24.1309 117.35 24.6887L116.635 26.9916C115.629 26.451 114.493 26.1807 113.22 26.1807C112.215 26.1807 111.429 26.4258 110.866 26.9134C110.39 27.3493 110.151 27.8806 110.151 28.51C110.151 29.207 110.423 29.7833 110.97 30.2365C111.446 30.6552 112.311 31.1083 113.566 31.5973C115.101 32.2081 116.229 32.9223 116.954 33.7411C117.677 34.5573 118.037 35.5789 118.037 36.7979Z" fill="white"/>
<path d="M127.488 31.1482H124.338V37.3214C124.338 38.8915 124.893 39.6759 126.005 39.6759C126.516 39.6759 126.94 39.6322 127.275 39.5447L127.354 41.6899C126.791 41.8979 126.05 42.0026 125.131 42.0026C124.002 42.0026 123.12 41.6621 122.483 40.9823C121.849 40.3013 121.53 39.1591 121.53 37.5546V31.1455H119.653V29.0255H121.53V26.6975L124.338 25.8601V29.0255H127.488V31.1482Z" fill="white"/>
<path d="M141.704 35.2807C141.704 37.2351 141.138 38.8396 140.01 40.0944C138.826 41.3863 137.254 42.0302 135.295 42.0302C133.408 42.0302 131.905 41.4115 130.784 40.1739C129.663 38.9364 129.103 37.3742 129.103 35.4914C129.103 33.5211 129.679 31.9072 130.836 30.6525C131.991 29.3964 133.548 28.7683 135.507 28.7683C137.395 28.7683 138.914 29.3871 140.06 30.626C141.157 31.8277 141.704 33.3793 141.704 35.2807ZM138.738 35.3721C138.738 34.1995 138.485 33.1938 137.972 32.3551C137.372 31.3401 136.516 30.834 135.405 30.834C134.256 30.834 133.384 31.3415 132.784 32.3551C132.271 33.1951 132.017 34.2167 132.017 35.4251C132.017 36.5977 132.271 37.6034 132.784 38.4408C133.402 39.4558 134.266 39.9619 135.38 39.9619C136.471 39.9619 137.328 39.4452 137.946 38.4143C138.473 37.5597 138.738 36.5434 138.738 35.3721Z" fill="white"/>
<path d="M150.996 31.5125C150.713 31.4608 150.411 31.4343 150.095 31.4343C149.089 31.4343 148.311 31.8093 147.764 32.5606C147.288 33.2231 147.05 34.0605 147.05 35.0714V41.7428H144.193L144.219 33.0323C144.219 31.5668 144.183 30.2325 144.112 29.0294H146.602L146.707 31.4621H146.786C147.087 30.6261 147.563 29.953 148.215 29.4481C148.852 28.9937 149.54 28.7671 150.281 28.7671C150.545 28.7671 150.784 28.7856 150.996 28.8188V31.5125Z" fill="white"/>
<path d="M163.78 34.7838C163.78 35.29 163.746 35.7166 163.675 36.0651H155.1C155.133 37.3212 155.547 38.2818 156.344 38.9443C157.066 39.5366 158.001 39.8334 159.149 39.8334C160.418 39.8334 161.577 39.6333 162.618 39.2319L163.066 41.1929C161.849 41.7176 160.412 41.9786 158.753 41.9786C156.758 41.9786 155.192 41.3982 154.052 40.2389C152.916 39.0795 152.346 37.5226 152.346 35.5696C152.346 33.6523 152.875 32.0557 153.936 30.7823C155.046 29.4229 156.546 28.7432 158.434 28.7432C160.288 28.7432 161.692 29.4229 162.645 30.7823C163.4 31.8622 163.78 33.1978 163.78 34.7838ZM161.054 34.0511C161.073 33.2137 160.886 32.4903 160.499 31.8794C160.004 31.0937 159.244 30.7015 158.221 30.7015C157.286 30.7015 156.526 31.0844 155.946 31.8529C155.47 32.4638 155.187 33.1965 155.1 34.0498H161.054V34.0511Z" fill="white"/>
<path d="M65.7633 13.262C65.7633 14.8215 65.29 15.9955 64.3448 16.7839C63.4693 17.5113 62.2251 17.8757 60.6135 17.8757C59.8145 17.8757 59.1307 17.8412 58.5582 17.7723V9.25124C59.305 9.13199 60.1094 9.07104 60.9782 9.07104C62.5134 9.07104 63.6704 9.40097 64.4507 10.0608C65.3249 10.8068 65.7633 11.8734 65.7633 13.262ZM64.2818 13.3004C64.2818 12.2895 64.011 11.5143 63.4693 10.9737C62.9277 10.4345 62.1366 10.1642 61.0949 10.1642C60.6524 10.1642 60.2757 10.1933 59.9633 10.2543V16.7322C60.1362 16.7587 60.4526 16.7706 60.9125 16.7706C61.9878 16.7706 62.8177 16.4751 63.4023 15.8842C63.9868 15.2932 64.2818 14.432 64.2818 13.3004Z" fill="white"/>
<path d="M73.6187 14.6241C73.6187 15.5847 73.3412 16.3718 72.7861 16.9892C72.2042 17.6239 71.4333 17.9406 70.4707 17.9406C69.5429 17.9406 68.8041 17.6371 68.2531 17.0276C67.7034 16.4195 67.4285 15.6523 67.4285 14.7274C67.4285 13.7602 67.7114 12.9665 68.2799 12.3504C68.8484 11.7343 69.6126 11.4255 70.5752 11.4255C71.503 11.4255 72.2485 11.729 72.8129 12.3371C73.3492 12.9281 73.6187 13.6913 73.6187 14.6241ZM72.1613 14.6691C72.1613 14.0928 72.0353 13.5985 71.7846 13.1865C71.4896 12.6883 71.07 12.4392 70.5243 12.4392C69.9598 12.4392 69.5308 12.6883 69.2358 13.1865C68.9838 13.5985 68.8591 14.1007 68.8591 14.6943C68.8591 15.2707 68.9851 15.7649 69.2358 16.177C69.5402 16.6752 69.9639 16.9243 70.5109 16.9243C71.0472 16.9243 71.4682 16.6712 71.7712 16.1637C72.0313 15.7437 72.1613 15.2455 72.1613 14.6691Z" fill="white"/>
<path d="M84.1516 11.5527L82.174 17.7988H80.8869L80.0677 15.0865C79.8599 14.4094 79.691 13.7363 79.5596 13.0685H79.5341C79.4121 13.7549 79.2431 14.4267 79.0259 15.0865L78.1558 17.7988H76.8539L74.9943 11.5527H76.4383L77.1529 14.5221C77.3259 15.2243 77.468 15.8934 77.582 16.5268H77.6074C77.712 16.0047 77.885 15.3396 78.129 14.5353L79.0259 11.5541H80.1709L81.0304 14.4717C81.2382 15.1832 81.4071 15.8683 81.5372 16.5281H81.576C81.6712 15.8855 81.8147 15.2005 82.0051 14.4717L82.772 11.5541H84.1516V11.5527Z" fill="white"/>
<path d="M91.4358 17.7989H90.0307V14.2214C90.0307 13.119 89.6071 12.5678 88.757 12.5678C88.3401 12.5678 88.0035 12.7188 87.7421 13.0222C87.4833 13.3257 87.3519 13.6834 87.3519 14.0928V17.7975H85.9468V13.3376C85.9468 12.789 85.9294 12.1941 85.8959 11.5502H87.1307L87.1964 12.5267H87.2353C87.3989 12.2233 87.6429 11.9728 87.9633 11.7728C88.3441 11.5396 88.7704 11.4216 89.237 11.4216C89.8269 11.4216 90.3177 11.6098 90.7078 11.9874C91.1932 12.4498 91.4358 13.1402 91.4358 14.0571V17.7989Z" fill="white"/>
<path d="M95.3106 17.7988H93.9068V8.68677H95.3106V17.7988Z" fill="white"/>
<path d="M103.583 14.6241C103.583 15.5847 103.305 16.3718 102.75 16.9892C102.168 17.6239 101.396 17.9406 100.435 17.9406C99.5058 17.9406 98.767 17.6371 98.2173 17.0276C97.6676 16.4195 97.3927 15.6523 97.3927 14.7274C97.3927 13.7602 97.6756 12.9665 98.2441 12.3504C98.8126 11.7343 99.5768 11.4255 100.538 11.4255C101.467 11.4255 102.211 11.729 102.777 12.3371C103.313 12.9281 103.583 13.6913 103.583 14.6241ZM102.124 14.6691C102.124 14.0928 101.998 13.5985 101.747 13.1865C101.454 12.6883 101.033 12.4392 100.489 12.4392C99.9227 12.4392 99.4937 12.6883 99.2001 13.1865C98.948 13.5985 98.8233 14.1007 98.8233 14.6943C98.8233 15.2707 98.9493 15.7649 99.2001 16.177C99.5044 16.6752 99.9281 16.9243 100.475 16.9243C101.011 16.9243 101.431 16.6712 101.734 16.1637C101.996 15.7437 102.124 15.2455 102.124 14.6691Z" fill="white"/>
<path d="M110.383 17.7988H109.122L109.017 17.0793H108.978C108.546 17.653 107.931 17.9406 107.132 17.9406C106.535 17.9406 106.053 17.7511 105.689 17.3748C105.359 17.0329 105.195 16.6076 105.195 16.1028C105.195 15.3396 105.516 14.7579 106.164 14.3551C106.81 13.9523 107.719 13.7549 108.89 13.7642V13.6476C108.89 12.8247 108.453 12.414 107.577 12.414C106.954 12.414 106.404 12.569 105.929 12.8764L105.644 11.9648C106.231 11.6057 106.956 11.4255 107.812 11.4255C109.463 11.4255 110.292 12.2868 110.292 14.0093V16.3095C110.292 16.9336 110.323 17.4304 110.383 17.7988ZM108.924 15.6523V14.689C107.375 14.6625 106.6 15.0825 106.6 15.9478C106.6 16.2737 106.688 16.5175 106.869 16.6805C107.05 16.8435 107.281 16.9243 107.556 16.9243C107.864 16.9243 108.152 16.8276 108.415 16.6354C108.679 16.442 108.841 16.1969 108.902 15.8961C108.916 15.8285 108.924 15.7464 108.924 15.6523Z" fill="white"/>
<path d="M118.367 17.7988H117.12L117.055 16.7958H117.016C116.618 17.559 115.939 17.9406 114.986 17.9406C114.224 17.9406 113.59 17.6451 113.087 17.0541C112.585 16.4632 112.334 15.696 112.334 14.7539C112.334 13.743 112.606 12.9241 113.153 12.2987C113.683 11.7157 114.332 11.4242 115.104 11.4242C115.953 11.4242 116.547 11.7064 116.884 12.2722H116.911V8.68677H118.318V16.116C118.318 16.7242 118.334 17.2847 118.367 17.7988ZM116.911 15.1647V14.1232C116.911 13.943 116.898 13.7973 116.872 13.686C116.793 13.3521 116.623 13.0712 116.364 12.8446C116.103 12.618 115.788 12.5041 115.424 12.5041C114.9 12.5041 114.49 12.7095 114.188 13.1215C113.889 13.5336 113.738 14.0596 113.738 14.7023C113.738 15.3197 113.881 15.8206 114.169 16.2061C114.474 16.6169 114.884 16.8223 115.398 16.8223C115.859 16.8223 116.227 16.6513 116.508 16.3082C116.779 15.9915 116.911 15.6099 116.911 15.1647Z" fill="white"/>
<path d="M130.384 14.6241C130.384 15.5847 130.107 16.3718 129.552 16.9892C128.97 17.6239 128.2 17.9406 127.236 17.9406C126.31 17.9406 125.571 17.6371 125.019 17.0276C124.469 16.4195 124.194 15.6523 124.194 14.7274C124.194 13.7602 124.477 12.9665 125.046 12.3504C125.614 11.7343 126.378 11.4255 127.342 11.4255C128.269 11.4255 129.015 11.729 129.579 12.3371C130.115 12.9281 130.384 13.6913 130.384 14.6241ZM128.928 14.6691C128.928 14.0928 128.802 13.5985 128.552 13.1865C128.255 12.6883 127.837 12.4392 127.29 12.4392C126.727 12.4392 126.298 12.6883 126.001 13.1865C125.749 13.5985 125.625 14.1007 125.625 14.6943C125.625 15.2707 125.751 15.7649 126.001 16.177C126.306 16.6752 126.729 16.9243 127.277 16.9243C127.813 16.9243 128.235 16.6712 128.538 16.1637C128.797 15.7437 128.928 15.2455 128.928 14.6691Z" fill="white"/>
<path d="M137.939 17.7989H136.536V14.2214C136.536 13.119 136.112 12.5678 135.261 12.5678C134.844 12.5678 134.507 12.7188 134.247 13.0222C133.987 13.3257 133.857 13.6834 133.857 14.0928V17.7975H132.45V13.3376C132.45 12.789 132.434 12.1941 132.401 11.5502H133.634L133.7 12.5267H133.739C133.904 12.2233 134.148 11.9728 134.467 11.7728C134.849 11.5396 135.274 11.4216 135.742 11.4216C136.331 11.4216 136.821 11.6098 137.211 11.9874C137.698 12.4498 137.939 13.1402 137.939 14.0571V17.7989Z" fill="white"/>
<path d="M147.396 12.5927H145.848V15.627C145.848 16.3981 146.123 16.7837 146.668 16.7837C146.92 16.7837 147.129 16.7625 147.294 16.7188L147.33 17.7722C147.052 17.8755 146.688 17.9272 146.239 17.9272C145.684 17.9272 145.252 17.7602 144.939 17.4263C144.626 17.0924 144.47 16.5306 144.47 15.7423V12.5927H143.546V11.5526H144.47V10.4078L145.847 9.99707V11.5513H147.394V12.5927H147.396Z" fill="white"/>
<path d="M154.834 17.7988H153.428V14.2478C153.428 13.1282 153.004 12.5677 152.155 12.5677C151.504 12.5677 151.059 12.8923 150.815 13.5416C150.773 13.678 150.749 13.845 150.749 14.0411V17.7975H149.345V8.68677H150.749V12.4511H150.776C151.218 11.7661 151.852 11.4242 152.674 11.4242C153.256 11.4242 153.737 11.6124 154.119 11.99C154.595 12.4604 154.834 13.16 154.834 14.0848V17.7988Z" fill="white"/>
<path d="M162.507 14.3802C162.507 14.6293 162.488 14.8387 162.455 15.0096H158.241C158.26 15.6271 158.461 16.0974 158.851 16.4234C159.208 16.7149 159.667 16.8606 160.231 16.8606C160.854 16.8606 161.422 16.7626 161.935 16.5652L162.155 17.5298C161.555 17.7868 160.85 17.9153 160.033 17.9153C159.055 17.9153 158.284 17.6305 157.726 17.0607C157.166 16.491 156.888 15.7264 156.888 14.7671C156.888 13.8251 157.147 13.0407 157.668 12.4153C158.213 11.7475 158.949 11.4136 159.878 11.4136C160.787 11.4136 161.477 11.7475 161.944 12.4153C162.321 12.9453 162.507 13.6011 162.507 14.3802ZM161.166 14.0212C161.177 13.6091 161.085 13.254 160.894 12.9545C160.65 12.569 160.279 12.3755 159.776 12.3755C159.318 12.3755 158.943 12.5637 158.658 12.9413C158.425 13.2421 158.287 13.6011 158.241 14.0212H161.166Z" fill="white"/>
</svg>
