<svg width="522" height="452" viewBox="0 0 522 452" fill="none" xmlns="http://www.w3.org/2000/svg">
<circle cx="52.5236" cy="448.24" r="3.52358" transform="rotate(-90 52.5236 448.24)" fill="#70C217"/>
<circle cx="52.5236" cy="396.561" r="3.52358" transform="rotate(-90 52.5236 396.561)" fill="#70C217"/>
<circle cx="52.5236" cy="344.882" r="3.52358" transform="rotate(-90 52.5236 344.882)" fill="#70C217"/>
<circle cx="52.5236" cy="293.203" r="3.52358" transform="rotate(-90 52.5236 293.203)" fill="#70C217"/>
<circle cx="52.5236" cy="241.524" r="3.52358" transform="rotate(-90 52.5236 241.524)" fill="#70C217"/>
<circle cx="104.203" cy="448.241" r="3.52358" transform="rotate(-90 104.203 448.241)" fill="#70C217"/>
<circle cx="104.203" cy="396.561" r="3.52358" transform="rotate(-90 104.203 396.561)" fill="#70C217"/>
<circle cx="104.203" cy="344.882" r="3.52358" transform="rotate(-90 104.203 344.882)" fill="#70C217"/>
<circle cx="104.203" cy="293.203" r="3.52358" transform="rotate(-90 104.203 293.203)" fill="#70C217"/>
<circle cx="104.203" cy="241.524" r="3.52358" transform="rotate(-90 104.203 241.524)" fill="#70C217"/>
<circle cx="155.882" cy="448.241" r="3.52358" transform="rotate(-90 155.882 448.241)" fill="#70C217"/>
<circle cx="155.882" cy="396.561" r="3.52358" transform="rotate(-90 155.882 396.561)" fill="#70C217"/>
<circle cx="155.882" cy="344.882" r="3.52358" transform="rotate(-90 155.882 344.882)" fill="#70C217"/>
<circle cx="155.882" cy="293.203" r="3.52358" transform="rotate(-90 155.882 293.203)" fill="#70C217"/>
<circle cx="155.882" cy="241.524" r="3.52358" transform="rotate(-90 155.882 241.524)" fill="#70C217"/>
<circle cx="207.561" cy="448.241" r="3.52358" transform="rotate(-90 207.561 448.241)" fill="#70C217"/>
<circle cx="207.561" cy="396.561" r="3.52358" transform="rotate(-90 207.561 396.561)" fill="#70C217"/>
<circle cx="207.561" cy="344.882" r="3.52358" transform="rotate(-90 207.561 344.882)" fill="#70C217"/>
<circle cx="207.561" cy="293.203" r="3.52358" transform="rotate(-90 207.561 293.203)" fill="#70C217"/>
<circle cx="207.561" cy="241.524" r="3.52358" transform="rotate(-90 207.561 241.524)" fill="#70C217"/>
<circle cx="259.24" cy="448.241" r="3.52358" transform="rotate(-90 259.24 448.241)" fill="#70C217"/>
<circle cx="259.24" cy="396.561" r="3.52358" transform="rotate(-90 259.24 396.561)" fill="#70C217"/>
<circle cx="259.24" cy="344.882" r="3.52358" transform="rotate(-90 259.24 344.882)" fill="#70C217"/>
<circle cx="259.24" cy="293.203" r="3.52358" transform="rotate(-90 259.24 293.203)" fill="#70C217"/>
<circle cx="259.24" cy="241.524" r="3.52358" transform="rotate(-90 259.24 241.524)" fill="#70C217"/>
<circle cx="310.92" cy="448.241" r="3.52358" transform="rotate(-90 310.92 448.241)" fill="#70C217"/>
<circle cx="310.92" cy="396.561" r="3.52358" transform="rotate(-90 310.92 396.561)" fill="#70C217"/>
<circle cx="310.92" cy="344.882" r="3.52358" transform="rotate(-90 310.92 344.882)" fill="#70C217"/>
<circle cx="310.92" cy="293.203" r="3.52358" transform="rotate(-90 310.92 293.203)" fill="#70C217"/>
<circle cx="310.92" cy="241.524" r="3.52358" transform="rotate(-90 310.92 241.524)" fill="#70C217"/>
<circle cx="362.599" cy="448.241" r="3.52358" transform="rotate(-90 362.599 448.241)" fill="#70C217"/>
<circle cx="362.599" cy="396.561" r="3.52358" transform="rotate(-90 362.599 396.561)" fill="#70C217"/>
<circle cx="362.599" cy="344.882" r="3.52358" transform="rotate(-90 362.599 344.882)" fill="#70C217"/>
<circle cx="362.599" cy="293.203" r="3.52358" transform="rotate(-90 362.599 293.203)" fill="#70C217"/>
<circle cx="362.599" cy="241.524" r="3.52358" transform="rotate(-90 362.599 241.524)" fill="#70C217"/>
<circle cx="414.278" cy="448.241" r="3.52358" transform="rotate(-90 414.278 448.241)" fill="#70C217"/>
<circle cx="414.278" cy="396.561" r="3.52358" transform="rotate(-90 414.278 396.561)" fill="#70C217"/>
<circle cx="414.278" cy="344.882" r="3.52358" transform="rotate(-90 414.278 344.882)" fill="#70C217"/>
<circle cx="414.278" cy="293.203" r="3.52358" transform="rotate(-90 414.278 293.203)" fill="#70C217"/>
<circle cx="414.278" cy="241.524" r="3.52358" transform="rotate(-90 414.278 241.524)" fill="#70C217"/>
<circle cx="465.957" cy="448.241" r="3.52358" transform="rotate(-90 465.957 448.241)" fill="#70C217"/>
<circle cx="465.957" cy="396.561" r="3.52358" transform="rotate(-90 465.957 396.561)" fill="#70C217"/>
<circle cx="465.957" cy="344.882" r="3.52358" transform="rotate(-90 465.957 344.882)" fill="#70C217"/>
<circle cx="465.957" cy="293.203" r="3.52358" transform="rotate(-90 465.957 293.203)" fill="#70C217"/>
<circle cx="465.957" cy="241.524" r="3.52358" transform="rotate(-90 465.957 241.524)" fill="#70C217"/>
<circle cx="517.636" cy="448.241" r="3.52358" transform="rotate(-90 517.636 448.241)" fill="#70C217"/>
<circle cx="517.636" cy="396.561" r="3.52358" transform="rotate(-90 517.636 396.561)" fill="#70C217"/>
<circle cx="517.636" cy="344.882" r="3.52358" transform="rotate(-90 517.636 344.882)" fill="#70C217"/>
<circle cx="517.636" cy="293.203" r="3.52358" transform="rotate(-90 517.636 293.203)" fill="#70C217"/>
<circle cx="517.636" cy="241.524" r="3.52358" transform="rotate(-90 517.636 241.524)" fill="#70C217"/>
<circle cx="336" cy="153" r="128.5" stroke="#FFBA49" stroke-width="5"/>
<circle cx="32.5" cy="32.5" r="30" stroke="#FFBA49" stroke-width="5"/>
</svg>
