<?xml version="1.0" encoding="UTF-8"?>
<svg width="30px" height="26px" viewBox="0 0 30 26" version="1.1" xmlns="http://www.w3.org/2000/svg" xmlns:xlink="http://www.w3.org/1999/xlink">
    <!-- Generator: Sketch 60.1 (88133) - https://sketch.com -->
    <title>invisible</title>
    <desc>Created with Sketch.</desc>
    <g id="External" stroke="none" stroke-width="1" fill="none" fill-rule="evenodd" opacity="0.302241">
        <g id="KB---Sign-Up" transform="translate(-1201.000000, -889.000000)" fill="#102649" fill-rule="nonzero">
            <g id="Group-4" transform="translate(660.000000, 124.000000)">
                <g id="Group-5" transform="translate(0.000000, 358.000000)">
                    <g id="Group-3-Copy-5" transform="translate(1.000000, 380.000000)">
                        <g id="invisible" transform="translate(540.000000, 27.000000)">
                            <path d="M24.5618985,0.33719998 C24.6794985,0.219899987 24.8687985,0.219899987 24.9860985,0.33719998 L24.9860985,0.33719998 L27.1073984,2.45819985 C27.1640984,2.51429985 27.1952984,2.59049985 27.1952984,2.67029984 C27.1952984,2.75009984 27.1637984,2.82629983 27.1076984,2.88179983 L27.1076984,2.88179983 L4.9826997,25.0067985 C4.92419971,25.0649985 4.84739971,25.0946985 4.77059972,25.0946985 C4.69379972,25.0946985 4.61699972,25.0649985 4.55849973,25.0067985 L4.55849973,25.0067985 L2.43719985,22.8857986 C2.38079986,22.8299986 2.34929986,22.7537986 2.34929986,22.6736986 C2.34929986,22.5938987 2.38079986,22.5179987 2.43719985,22.4615987 L2.43719985,22.4615987 L6.29519962,18.6035989 C2.80799983,16.514099 0.538199968,13.8896992 0.383099977,13.7078992 C-0.127499992,13.1075992 -0.127499992,12.2369993 0.382799977,11.6369993 C0.642899962,11.3309993 6.84419959,4.15319975 14.7722991,4.15319975 C16.556999,4.15319975 18.2528989,4.51769973 19.8134988,5.0855997 L19.8134988,5.0855997 Z M24.5405985,7.57049955 C27.2876984,9.46769944 29.0264983,11.4779993 29.1611983,11.6366993 C29.6717982,12.2369993 29.6717982,13.1075992 29.1614983,13.7069992 C28.9016983,14.0126992 22.7000986,21.1907987 14.7722991,21.1907987 C13.5896992,21.1907987 12.4466993,21.0284987 11.3549993,20.7554988 L11.3549993,20.7554988 L13.5866992,18.5240989 C13.9769992,18.5660989 14.3720991,18.5906989 14.7722991,18.5906989 C20.3099988,18.5906989 24.9704985,14.3384991 26.5838984,12.6722992 C25.8482985,11.9129993 24.4775985,10.6166994 22.6805986,9.43049944 L22.6805986,9.43049944 Z M20.7965988,11.3147993 C20.7212988,14.5313991 18.1313989,17.121599 14.9144991,17.196899 L14.9144991,17.196899 Z M9.73079942,7.86599953 C6.53009961,9.24359945 4.04999976,11.5469993 2.96069982,12.6722992 C3.86699977,13.6082992 5.73869966,15.3587991 8.18429951,16.714799 L8.18429951,16.714799 L10.0214994,14.8778991 C9.22079945,13.8557992 8.74049948,12.5717993 8.74049948,11.1722993 C8.74049948,9.95069941 9.10649946,8.81579947 9.73079942,7.86599953 Z" id="Combined-Shape"></path>
                        </g>
                    </g>
                </g>
            </g>
        </g>
    </g>
</svg>