<svg width="112" height="115" viewBox="0 0 112 115" fill="none" xmlns="http://www.w3.org/2000/svg">
<path fill-rule="evenodd" clip-rule="evenodd" d="M47.3786 13.6048C47.3786 7.45713 52.3623 2.47345 58.5099 2.47345C64.6576 2.47345 69.6413 7.45712 69.6413 13.6048V13.9259C82.6115 18.5102 91.9041 30.8798 91.9041 45.4198V69.6971H92.0909C92.0909 69.6971 92.1338 75.2649 95.8498 75.2649C97.2495 75.2649 98.7322 75.8335 100.037 76.5422C102.678 77.9772 103.866 80.9787 103.866 83.9844C103.866 89.9672 99.0156 94.8173 93.0327 94.8173H23.7428C17.8948 94.8173 13.1541 90.0766 13.1541 84.2285C13.1541 81.0876 14.4911 77.9877 17.2684 76.5207C18.5913 75.822 20.0329 75.2649 21.2665 75.2649C23.265 75.2649 24.4728 73.2331 25.116 71.6242V45.4198C25.116 30.8799 34.4085 18.5103 47.3786 13.926V13.6048ZM71.8498 101.31C71.8498 108.871 65.728 115 58.1764 115C50.6247 115 44.5029 108.871 44.5029 101.31H71.8498Z" fill="#C9874A" fill-opacity="0.1"/>
<g filter="url(#filter0_d)">
<path fill-rule="evenodd" clip-rule="evenodd" d="M94.2609 108.121C100.744 108.121 106 102.859 106 96.3679C106 89.8766 100.744 84.6143 94.2609 84.6143C87.7775 84.6143 82.5217 89.8766 82.5217 96.3679C82.5217 102.859 87.7775 108.121 94.2609 108.121Z" fill="#C9874A"/>
</g>
<path d="M91.2015 96.1288C91.2015 98.5045 92.3144 100.038 94.1826 100.038C96.0508 100.038 97.1867 98.4872 97.1867 96.1288V95.7771C97.1867 93.3957 96.0854 91.8677 94.2114 91.8677C92.3317 91.8677 91.2015 93.4187 91.2015 95.7771V96.1288ZM92.7584 95.7829C92.7584 94.128 93.3004 93.142 94.1941 93.142C95.0879 93.142 95.6299 94.128 95.6299 95.7829V96.1173C95.6299 97.7779 95.0821 98.7697 94.1941 98.7697C93.3061 98.7697 92.7584 97.7779 92.7584 96.1173V95.7829Z" fill="white"/>
<path fill-rule="evenodd" clip-rule="evenodd" d="M48.5049 62.251C48.5049 62.7831 48.8218 63.2621 49.3211 63.4458C50.9277 64.037 54.6595 65.2476 58.2766 65.2476C61.8842 65.2476 65.4918 64.0434 67.0493 63.4505C67.5392 63.264 67.8478 62.7905 67.8478 62.2663C67.8478 61.3071 66.8509 60.6404 65.9415 60.9453C64.1086 61.5598 61.1873 62.3451 58.2279 62.3451C55.2443 62.3451 52.2606 61.5469 50.4008 60.9303C49.4936 60.6295 48.5049 61.2953 48.5049 62.251Z" fill="#D7D6EC"/>
<path fill-rule="evenodd" clip-rule="evenodd" d="M43.1689 50.579C43.1689 50.1992 43.3171 49.8334 43.6052 49.586C44.3152 48.9761 45.7854 47.8845 47.2124 47.8845C48.6455 47.8845 50.0785 48.9852 50.761 49.5936C51.0343 49.8372 51.1729 50.1903 51.1729 50.5564C51.1729 51.8586 49.4031 52.5989 48.1529 52.2344C47.8391 52.1429 47.5163 52.0884 47.1923 52.0884C46.8502 52.0884 46.5081 52.1491 46.1759 52.25C44.9254 52.6298 43.1689 51.8859 43.1689 50.579Z" fill="#D7D6EC"/>
<path fill-rule="evenodd" clip-rule="evenodd" d="M65.8467 50.579C65.8467 50.1992 65.9948 49.8334 66.2829 49.586C66.9929 48.9761 68.4631 47.8845 69.8902 47.8845C71.3232 47.8845 72.7562 48.9852 73.4388 49.5936C73.7121 49.8372 73.8506 50.1903 73.8506 50.5564C73.8506 51.8586 72.0808 52.5989 70.8306 52.2344C70.5169 52.1429 70.194 52.0884 69.87 52.0884C69.5279 52.0884 69.1858 52.1491 68.8537 52.25C67.6032 52.6298 65.8467 51.8859 65.8467 50.579Z" fill="#D7D6EC"/>
<path d="M12.8559 27.4789C11.5613 20.2871 17.29 11.782 23.9973 10.0138" stroke="#D7D6EC" stroke-width="2.0129" stroke-linecap="round" stroke-linejoin="round"/>
<path d="M2.23819 24.6082C0.562406 15.2986 7.97803 4.28893 16.6606 2" stroke="#D7D6EC" stroke-width="2.0129" stroke-linecap="round" stroke-linejoin="round"/>
<defs>
<filter id="filter0_d" x="77.154" y="80.5885" width="34.2138" height="34.2426" filterUnits="userSpaceOnUse" color-interpolation-filters="sRGB">
<feFlood flood-opacity="0" result="BackgroundImageFix"/>
<feColorMatrix in="SourceAlpha" type="matrix" values="0 0 0 0 0 0 0 0 0 0 0 0 0 0 0 0 0 0 127 0"/>
<feOffset dy="1.34194"/>
<feGaussianBlur stdDeviation="2.68387"/>
<feColorMatrix type="matrix" values="0 0 0 0 0.788235 0 0 0 0 0.529412 0 0 0 0 0.290196 0 0 0 0.1 0"/>
<feBlend mode="normal" in2="BackgroundImageFix" result="effect1_dropShadow"/>
<feBlend mode="normal" in="SourceGraphic" in2="effect1_dropShadow" result="shape"/>
</filter>
</defs>
</svg>
