<svg width="181" height="53" viewBox="0 0 181 53" fill="none" xmlns="http://www.w3.org/2000/svg">
<path fill-rule="evenodd" clip-rule="evenodd" d="M174.294 53H6.70617C3.01012 53 0 50.013 0 46.375V6.625C0 2.97382 3.01012 0 6.70617 0H174.294C177.987 0 181 2.97382 181 6.625V46.375C181 50.013 177.987 53 174.294 53Z" fill="black"/>
<path fill-rule="evenodd" clip-rule="evenodd" d="M174.294 1.06066C177.394 1.06066 179.931 3.56197 179.931 6.625V46.375C179.931 49.438 177.41 51.9393 174.294 51.9393H6.70617C3.60615 51.9393 1.06886 49.438 1.06886 46.375V6.625C1.06886 3.56197 3.5895 1.06066 6.70617 1.06066H174.294ZM174.294 0H6.70617C3.01012 0 0 2.98703 0 6.625V46.375C0 50.0262 3.01012 53 6.70617 53H174.294C177.987 53 181 50.0262 181 46.375V6.625C181 2.98703 177.987 0 174.294 0Z" fill="#A6A6A6"/>
<path d="M95.3515 17.5322C94.1428 17.5322 93.1239 17.1126 92.3181 16.2866C91.5189 15.4836 91.0727 14.3767 91.0927 13.2467C91.0927 12.0406 91.5056 11.0196 92.3181 10.2101C93.1206 9.38399 94.1395 8.96436 95.3482 8.96436C96.5436 8.96436 97.5625 9.38399 98.3816 10.2101C99.1941 11.046 99.607 12.067 99.607 13.2467C99.5936 14.456 99.1807 15.477 98.3816 16.2832C97.5791 17.1159 96.5602 17.5322 95.3515 17.5322ZM59.3866 17.5322C58.2045 17.5322 57.179 17.1192 56.3399 16.3031C55.5074 15.4902 55.0845 14.4626 55.0845 13.25C55.0845 12.0373 55.5074 11.0097 56.3399 10.1968C57.1623 9.38069 58.1879 8.96766 59.3866 8.96766C59.9726 8.96766 60.542 9.08331 61.0881 9.31791C61.6242 9.5459 62.0604 9.8565 62.3834 10.2365L62.4633 10.3323L61.5609 11.2112L61.4677 11.1022C60.9583 10.5008 60.2757 10.2067 59.3733 10.2067C58.5675 10.2067 57.8649 10.4909 57.2855 11.0526C56.7028 11.6177 56.4065 12.3578 56.4065 13.2533C56.4065 14.1487 56.7028 14.8889 57.2855 15.4539C57.8649 16.0156 58.5675 16.2998 59.3733 16.2998C60.2324 16.2998 60.9549 16.0156 61.5177 15.4539C61.8506 15.1235 62.0571 14.6609 62.1303 14.076H59.2368V12.8402H63.3723L63.389 12.9526C63.419 13.1607 63.4489 13.3755 63.4489 13.5738C63.4489 14.7137 63.1026 15.6356 62.4167 16.3163C61.6375 17.1225 60.6186 17.5322 59.3866 17.5322ZM107.206 17.3571H105.93L102.024 11.1551L102.058 12.2719V17.3538H100.782V9.14279H102.237L102.277 9.20557L105.95 15.0475L105.917 13.9339V9.14279H107.206V17.3571ZM85.7684 17.3571H84.4765V10.3786H82.2355V9.14279H88.006V10.3786H85.7651V17.3571H85.7684ZM81.1833 17.3571H79.8947V9.14279H81.1833V17.3571ZM73.9411 17.3571H72.6524V10.3786H70.4115V9.14279H76.182V10.3786H73.9411V17.3571ZM69.5957 17.3439H64.6543V9.14279H69.5957V10.3786H65.9463V12.6321H69.2394V13.8546H65.9463V16.1081H69.5957V17.3439ZM93.2637 15.4374C93.8398 16.009 94.539 16.2965 95.3515 16.2965C96.1873 16.2965 96.8699 16.0156 97.4393 15.4374C98.0053 14.8756 98.2917 14.1388 98.2917 13.25C98.2917 12.3611 98.0053 11.621 97.4426 11.0625C96.8665 10.4909 96.164 10.2034 95.3548 10.2034C94.5191 10.2034 93.8365 10.4843 93.2704 11.0625C92.7043 11.6243 92.418 12.3611 92.418 13.25C92.418 14.1388 92.701 14.8789 93.2637 15.4374Z" fill="white"/>
<path fill-rule="evenodd" clip-rule="evenodd" d="M90.9729 28.8261C87.8262 28.8261 85.2756 31.1952 85.2756 34.4631C85.2756 37.7013 87.8429 40.1002 90.9729 40.1002C94.1195 40.1002 96.6701 37.7145 96.6701 34.4631C96.6701 31.1952 94.1195 28.8261 90.9729 28.8261ZM90.9729 37.8665C89.2514 37.8665 87.7696 36.4523 87.7696 34.4499C87.7696 32.4178 89.2547 31.0333 90.9729 31.0333C92.6943 31.0333 94.1761 32.4178 94.1761 34.4499C94.1794 36.4655 92.6943 37.8665 90.9729 37.8665ZM78.5428 28.8261C75.3961 28.8261 72.8455 31.1952 72.8455 34.4631C72.8455 37.7013 75.4128 40.1002 78.5428 40.1002C81.6894 40.1002 84.24 37.7145 84.24 34.4631C84.24 31.1952 81.6861 28.8261 78.5428 28.8261ZM78.5428 37.8665C76.8213 37.8665 75.3395 36.4523 75.3395 34.4499C75.3395 32.4178 76.8246 31.0333 78.5428 31.0333C80.2643 31.0333 81.746 32.4178 81.746 34.4499C81.746 36.4655 80.2643 37.8665 78.5428 37.8665ZM63.7519 30.5476V32.9333H69.5224C69.3459 34.2715 68.8997 35.2595 68.2171 35.9368C67.3714 36.7761 66.0661 37.6881 63.7652 37.6881C60.219 37.6881 57.4453 34.8464 57.4453 31.3274C57.4453 27.8084 60.219 24.9667 63.7652 24.9667C65.6799 24.9667 67.075 25.7168 68.1106 26.675L69.8154 24.9833C68.377 23.6153 66.4624 22.5679 63.7786 22.5679C58.9137 22.5679 54.8314 26.4999 54.8314 31.3142C54.8314 36.1417 58.9104 40.0605 63.7786 40.0605C66.4057 40.0605 68.377 39.208 69.9353 37.6022C71.5236 36.026 72.0264 33.8023 72.0264 32.0081C72.0264 31.4497 71.9831 30.9474 71.8932 30.5212H63.7486C63.7519 30.5179 63.7519 30.5476 63.7519 30.5476ZM124.251 32.4046C123.774 31.1391 122.336 28.8129 119.386 28.8129C116.462 28.8129 114.032 31.0961 114.032 34.4499C114.032 37.6154 116.436 40.0869 119.669 40.0869C122.266 40.0869 123.778 38.5108 124.4 37.5856L122.473 36.3036C121.833 37.2453 120.944 37.8632 119.682 37.8632C118.407 37.8632 117.515 37.2883 116.922 36.1549L124.517 33.0324C124.517 33.0357 124.251 32.4046 124.251 32.4046ZM116.506 34.288C116.446 32.1105 118.21 31.0036 119.472 31.0036C120.468 31.0036 121.297 31.4893 121.58 32.1964L116.506 34.288ZM110.336 39.7499H112.83V23.1891H110.336V39.7499ZM106.24 30.0784H106.15C105.587 29.4143 104.518 28.8129 103.153 28.8129C100.32 28.8129 97.709 31.2878 97.709 34.4664C97.709 37.6319 100.306 40.077 103.153 40.077C104.502 40.077 105.587 39.4724 106.15 38.795H106.24V39.6045C106.24 41.7556 105.081 42.9154 103.213 42.9154C101.685 42.9154 100.736 41.825 100.35 40.913L98.1818 41.8118C98.8045 43.2987 100.466 45.1391 103.21 45.1391C106.133 45.1391 108.611 43.4308 108.611 39.2642V29.1499H106.253V30.0784C106.257 30.0784 106.24 30.0784 106.24 30.0784ZM103.376 37.8665C101.655 37.8665 100.216 36.4391 100.216 34.4664C100.216 32.4773 101.655 31.0366 103.376 31.0366C105.081 31.0366 106.403 32.4938 106.403 34.4664C106.42 36.4391 105.084 37.8665 103.376 37.8665ZM135.928 23.1891H129.965V39.7499H132.459V33.4785H135.932C138.692 33.4785 141.406 31.4926 141.406 28.3404C141.406 25.1881 138.702 23.1891 135.928 23.1891ZM136.001 31.1655H132.455V25.4822H136.001C137.869 25.4822 138.925 27.0121 138.925 28.3239C138.925 29.6224 137.856 31.1655 136.001 31.1655ZM151.402 28.7964C149.59 28.7964 147.722 29.5927 146.95 31.3274L149.161 32.2394C149.637 31.3274 150.509 31.0168 151.432 31.0168C152.724 31.0168 154.029 31.7834 154.059 33.1513V33.3265C153.613 33.0753 152.634 32.6921 151.462 32.6921C149.074 32.6921 146.653 33.9873 146.653 36.4159C146.653 38.6397 148.611 40.0671 150.792 40.0671C152.467 40.0671 153.39 39.3171 153.966 38.448H154.055V39.7301H156.46V33.386C156.46 30.432 154.249 28.7964 151.402 28.7964ZM151.089 37.8665C150.273 37.8665 149.131 37.47 149.131 36.4523C149.131 35.1702 150.556 34.6845 151.771 34.6845C152.87 34.6845 153.39 34.9191 154.042 35.2429C153.862 36.7298 152.597 37.8533 151.089 37.8665ZM165.23 29.1499L162.367 36.3333H162.277L159.31 29.1499H156.626L161.078 39.1915L158.541 44.7724H161.138L167.987 29.1499H165.23ZM142.781 39.7499H145.275V23.1891H142.781V39.7499Z" fill="white"/>
<path fill-rule="evenodd" clip-rule="evenodd" d="M13.9318 9.98204C13.5455 10.3951 13.3224 11.0262 13.3224 11.8522V41.1509C13.3224 41.977 13.5455 42.6081 13.9451 43.0046L14.0483 43.0938L30.5907 26.6784V26.3116L14.035 9.89282L13.9318 9.98204Z" fill="url(#paint0_linear)"/>
<path fill-rule="evenodd" clip-rule="evenodd" d="M36.0948 32.1668L30.5773 26.6917V26.3084L36.0948 20.8333L36.2147 20.9059L42.741 24.5869C44.609 25.631 44.609 27.3558 42.741 28.4132L36.2147 32.0941L36.0948 32.1668Z" fill="url(#paint1_linear)"/>
<path fill-rule="evenodd" clip-rule="evenodd" d="M36.2147 32.0941L30.5773 26.5L13.9318 43.0179C14.5411 43.6655 15.5634 43.7382 16.7055 43.1071L36.2147 32.0941Z" fill="url(#paint2_linear)"/>
<path fill-rule="evenodd" clip-rule="evenodd" d="M36.2147 20.906L16.7055 9.90948C15.5634 9.26185 14.5378 9.35106 13.9318 9.99869L30.5773 26.5001L36.2147 20.906Z" fill="url(#paint3_linear)"/>
<path opacity="0.2" fill-rule="evenodd" clip-rule="evenodd" d="M36.0948 31.9751L16.7188 42.8989C15.6366 43.5168 14.671 43.4739 14.0483 42.9121L13.9451 43.0146L14.0483 43.1038C14.671 43.6622 15.6366 43.7085 16.7188 43.0906L36.228 32.094L36.0948 31.9751Z" fill="black"/>
<path opacity="0.12" fill-rule="evenodd" clip-rule="evenodd" d="M42.741 28.2215L36.0782 31.9751L36.198 32.0941L42.7244 28.4132C43.6601 27.8845 44.1196 27.1906 44.1196 26.5C44.063 27.1344 43.5868 27.7358 42.741 28.2215Z" fill="black"/>
<path opacity="0.25" fill-rule="evenodd" clip-rule="evenodd" d="M16.7055 10.101L42.741 24.7785C43.5868 25.251 44.0629 25.8689 44.1362 26.5C44.1362 25.8094 43.6767 25.1155 42.741 24.5868L16.7055 9.90939C14.8375 8.84873 13.3224 9.73427 13.3224 11.8523V12.0439C13.3224 9.92261 14.8375 9.05359 16.7055 10.101Z" fill="white"/>
<defs>
<linearGradient id="paint0_linear" x1="29.1068" y1="11.5361" x2="2.63611" y2="18.6438" gradientUnits="userSpaceOnUse">
<stop stop-color="#00A0FF"/>
<stop offset="0.00657" stop-color="#00A1FF"/>
<stop offset="0.2601" stop-color="#00BEFF"/>
<stop offset="0.5122" stop-color="#00D2FF"/>
<stop offset="0.7604" stop-color="#00DFFF"/>
<stop offset="1" stop-color="#00E3FF"/>
</linearGradient>
<linearGradient id="paint1_linear" x1="45.1771" y1="26.5001" x2="12.8684" y2="26.5001" gradientUnits="userSpaceOnUse">
<stop stop-color="#FFE000"/>
<stop offset="0.4087" stop-color="#FFBD00"/>
<stop offset="0.7754" stop-color="#FFA500"/>
<stop offset="1" stop-color="#FF9C00"/>
</linearGradient>
<linearGradient id="paint2_linear" x1="33.1493" y1="29.544" x2="12.1181" y2="65.2149" gradientUnits="userSpaceOnUse">
<stop stop-color="#FF3A44"/>
<stop offset="1" stop-color="#C31162"/>
</linearGradient>
<linearGradient id="paint3_linear" x1="9.74026" y1="0.236962" x2="19.1231" y2="16.168" gradientUnits="userSpaceOnUse">
<stop stop-color="#32A071"/>
<stop offset="0.0685" stop-color="#2DA771"/>
<stop offset="0.4762" stop-color="#15CF74"/>
<stop offset="0.8009" stop-color="#06E775"/>
<stop offset="1" stop-color="#00F076"/>
</linearGradient>
</defs>
</svg>
