<svg xmlns="http://www.w3.org/2000/svg" xmlns:xlink="http://www.w3.org/1999/xlink" version="1.1" x="0px" y="0px" width="500px" height="421px" viewBox="0 0 500 421" enable-background="new 0 0 500 421" xml:space="preserve">
<g id="BACKGROUND">
</g>
<g id="OBJECTS">
</g>
<g id="DESIGNED_BY_FREEPIK">
	<g>
		<path fill="#CCE9FF" d="M278.229,106.526c4.002,2.03,7.752,4.28,11.151,6.677c11.887,8.378,21.448,20.572,33.129,28.973    c11.028,7.932,24.498,9.863,37.119,11.187c21.999,2.312,67.881,24.479,59.598,65.566c-3.013,14.952-13.643,25.106-19.085,38.647    c-5.788,14.402-5.181,32.364-14.397,44.852c-4.056,5.489-9.653,9.115-15.398,11.863c-38.241,18.274-81.187,17.424-121.736,15.41    c-32.006-1.591-83.41,6.813-111.522-13.705c-13.957-10.188-6.699-38.038-16.357-52.994c-8.115-12.57-19.161-20.822-24.586-36.558    c-9.233-26.769,3.929-61.608,26.971-71.112c14.4-5.936,29.657-8.658,43.891-15.18c14.706-6.741,20.372-16.837,31.588-28.786    C218.866,89.77,253.375,93.912,278.229,106.526z"/>
		<path fill="#FFFFFF" d="M310.64,138.475H187.162c-4.572,0-8.28,3.706-8.28,8.28v38.091v91.206v35.654    c0,4.572,3.708,8.28,8.28,8.28H310.64c4.572,0,8.28-3.708,8.28-8.28v-35.654v-91.206v-38.091    C318.92,142.181,315.212,138.475,310.64,138.475z"/>
		<rect x="182.478" y="167.789" fill="#F2F2F2" width="132.847" height="127.768"/>
		<path fill="#FCD2B1" d="M291.695,173.871c0,0,5.963-1.961,10.272,4.449c4.311,6.411,4.809,12.186,2.818,17.438    c-1.989,5.249-4.586,13.209-10.224,15.806s-17.63,21.608-23.323,25.258c-5.692,3.647-9.45,1.104-8.401-2.101    c1.051-3.207,5.748-3.262,5.084-7.352c-0.662-4.09-11.659-3.758-10.776-10.722c0.884-6.964,1.048-7.581,7.072-8.245    c6.023-0.663,7.177-6.23,7.736-12.275c0.779-8.416,2.73-12.263,6.581-17.393C281.728,174.479,287.666,173.152,291.695,173.871z"/>
		<g>
			<g>
				<g>
					<path fill="#8E4F3A" d="M225.719,262.338l-25.896,4.677h-0.01c-0.126,0.363-0.413,0.922-1.031,1.201c0,0-0.287,1.1-0.956,1.228       c0,0-0.812-0.043-1.158-0.23c0,0-0.39-0.252-0.77-0.49c0.119-0.659,0.187-1.031,0.187-1.031       c0.008-0.008,0.008-0.025,0.017-0.034c0.093-0.253,0.727-1.852,1.775-4.042c0.407-0.854,0.879-1.802,1.404-2.783l0.009-0.008       v-0.009c0-0.009,0.008-0.017,0.016-0.024c5.236-9.777,16.061-23.893,26.158,0.896c0.019,0.058,0.043,0.117,0.068,0.177       c0.018,0.052,0.043,0.11,0.059,0.16C225.634,262.135,225.676,262.236,225.719,262.338z"/>
					<path opacity="0.7" fill="#FFBE55" d="M270.517,295.558h-19.857c-0.025-0.032-0.051-0.06-0.067-0.092       c0,0-0.009,0.032-0.017,0.092h-19.689c-0.017-0.304-0.033-0.617-0.042-0.921c-0.118-3.188,0.06-6.335,0.795-9.811       c0.11-0.507,0.228-1.032,0.363-1.556c0.566-2.233,1.362-4.627,2.444-7.257c3.028-7.375,6.251-11.569,9.464-13.6       c3.188,6.039,6.274,11.857,6.19,11.916c-0.008,0-0.008,0.009-0.017,0.025c0.101,0,4.931-2.781,5.278-2.866       c0.347-0.086-1.684-4.948-4.018-10.352c7.661,1.868,14.08,12.347,15.703,15.205c0.095,0.153,0.171,0.289,0.23,0.397       c0.108,0.203,0.168,0.322,0.168,0.322S269.316,288.166,270.517,295.558z"/>
				</g>
			</g>
			<g>
				<g>
					<path fill="#0E538C" d="M225.719,262.338l-25.896,4.677h-0.01c-0.126,0.363-0.413,0.922-1.031,1.201c0,0-0.287,1.1-0.956,1.228       c0,0-0.812-0.043-1.158-0.23c0,0-0.39-0.252-0.77-0.49c-0.103-0.058-0.195-0.117-0.287-0.168       c-0.144-0.076-0.271-0.145-0.355-0.179c-0.136-0.058-0.355-0.126-0.609-0.228c0.406-1.945,0.948-3.619,2.038-4.482l1.192-0.051       l3.569-0.17L225.719,262.338z"/>
					<path fill="#0B4870" d="M231.639,284.826c-0.735,3.476-0.913,6.622-0.795,9.811c0.009,0.304,0.025,0.617,0.042,0.921h-40.739       c2.437-8.49,2.462-18.657,3.299-21.625c0.525-1.868,0.805-3.95,1.201-5.784c0.254,0.102,0.474,0.17,0.609,0.228       c0.084,0.034,0.212,0.103,0.355,0.179c0.092,0.051,0.185,0.11,0.287,0.168c0.38,0.238,0.77,0.49,0.77,0.49       c0.347,0.188,1.158,0.23,1.158,0.23c0.669-0.128,0.956-1.228,0.956-1.228c0.618-0.279,0.905-0.838,1.031-1.201h0.01       l25.896-4.677c0,0,0.008,0,0.008,0.009c0.203,0.32,4.728,7.628,6.275,20.924C231.866,283.794,231.749,284.319,231.639,284.826z       "/>
				</g>
			</g>
			<g>
				<g>
					<path fill="#EEA886" d="M200.007,191.299c-0.081-0.839-0.157-1.549-0.19-1.866l-0.005-0.017l-0.008-0.01       c-0.01-0.012-0.116-0.126-0.264-0.24c-0.004,0.047-0.004,0.085-0.004,0.123c0.089,0.076,0.156,0.144,0.183,0.168       c0.058,0.556,0.126,1.189,0.19,1.837c0.185,1.916,0.345,3.948,0.273,4.345c0.009,0.051,0.018,0.098,0.03,0.145       c0.01,0,0.017-0.01,0.021-0.013C200.395,195.605,200.188,193.147,200.007,191.299z"/>
				</g>
			</g>
			<g>
				<g>
					<path fill="#0B4870" d="M228.462,211.105c-0.33,1.457-0.645,2.684-0.935,3.712c-0.466-0.512-0.867-0.851-1.189-0.978       c-3.49-1.385-7.146-2.353-9.558-2.914c-0.938-0.373-1.883-0.645-2.812-0.834c-0.588-2.716-0.225-7.243-0.225-7.243       c1.328-1.38,2.547-3.579,3.211-7.078c0.021,0.021,0.046,0.033,0.076,0.033c0.008,0,0.021-0.003,0.029-0.003       c0.271-0.068,0.693-1.355,0.779-1.617c0.018-0.068,0.061-0.199,0.117-0.377c0.334-1.032,1.117-3.452,0.813-4.374       c-0.098-0.296-0.249-0.466-0.449-0.504c-0.427-0.093-0.917,0.452-0.936,0.478l-0.007,0.005       c-0.004-0.093-0.014-0.182-0.021-0.271l-0.56,0.262l-4.026-3.845c0,0,1.46,3.815,1.46,3.866       c-2.666,1.312-7.003-0.021-7.003-0.021l-1.129-2.715c0,0,0,0-0.635,2.715c-0.436,1.867-3.55,1.998-5.457,1.896       c-0.081-0.839-0.157-1.549-0.19-1.866l-0.005-0.017l-0.008-0.01c-0.01-0.012-0.116-0.126-0.264-0.24       c-0.004,0.047-0.004,0.085-0.004,0.123c-0.012,0.284-0.009,0.444-0.009,0.444c0.021,0.533,0.052,1.046,0.084,1.539       c0.119,1.642,0.317,3.094,0.571,4.366c0.009,0.051,0.018,0.098,0.03,0.145c1.02,4.987,2.945,7.31,4.612,8.394       c0.266,2.179-0.246,4.721-0.623,6.189c-0.008,0.026-0.012,0.051-0.021,0.077c-0.008,0.028-0.012,0.055-0.02,0.08       c-0.174,0.663-0.311,1.07-0.311,1.07s-0.083,0.809,0.611,1.699c0.135,1.224,0.316,2.53,0.561,3.817       c0.145,0.778,0.31,1.55,0.504,2.289c0.301,1.146,0.145,2.192-0.312,3.076c-1.642,3.224-7.243,4.284-9.115,0.287       c-0.786-1.688-0.493-3.66,0.336-5.623c0.185-0.438,0.397-0.88,0.631-1.316c0.6-1.13,1.341-2.229,2.11-3.249       c0.109-0.06,0.224-0.113,0.334-0.168c0.06-0.152,0.114-0.31,0.165-0.471c0.368-1.163,0.491-2.533,0.161-4.108       c-1.328-6.337-4.633-16.723-2.768-23.798c1.867-7.072,8.026-7.957,11.947-8.498c0,0,6.562-0.69,8.927,5.65       c2.365,6.335,4.592,8.411,4.871,11.741C223.942,206.391,230.231,203.344,228.462,211.105z"/>
					<path fill="#16202E" d="M197.066,215.823c-0.233,0.437-0.446,0.878-0.631,1.316l-1.231,0.005       C195.204,217.145,196.067,216.712,197.066,215.823z"/>
					<path fill="#16202E" d="M227.527,214.817c-1.254,4.45-2.06,5.225-2.06,5.225l-11.614-2.276l-3.419-0.672l-5.412,0.017       c-0.244-1.287-0.426-2.594-0.561-3.817c-0.694-0.891-0.611-1.699-0.611-1.699s0.137-0.407,0.311-1.07       c0.008-0.025,0.012-0.052,0.02-0.08c0.01-0.026,0.014-0.051,0.021-0.077c0.377-1.469,0.889-4.011,0.623-6.189       c-1.667-1.084-3.593-3.406-4.612-8.394c-0.013-0.047-0.021-0.094-0.03-0.145c-0.254-1.272-0.452-2.725-0.571-4.366       c-0.032-0.493-0.062-1.006-0.084-1.539c0,0-0.003-0.16,0.009-0.444c0-0.038,0-0.076,0.004-0.123       c0.147,0.114,0.254,0.229,0.264,0.24l0.008,0.01l0.005,0.017c0.033,0.317,0.109,1.027,0.19,1.866       c1.907,0.102,5.021-0.029,5.457-1.896c0.635-2.715,0.635-2.715,0.635-2.715l1.129,2.715c0,0,4.337,1.334,7.003,0.021       c0-0.051-1.46-3.866-1.46-3.866l4.026,3.845l0.56-0.262c0.008,0.089,0.018,0.178,0.021,0.271l0.007-0.005       c0.019-0.025,0.509-0.57,0.936-0.478c0.2,0.038,0.352,0.208,0.449,0.504c0.304,0.922-0.479,3.342-0.813,4.374       c-0.057,0.178-0.1,0.309-0.117,0.377c-0.086,0.262-0.508,1.549-0.779,1.617c-0.008,0-0.021,0.003-0.029,0.003       c-0.03,0-0.055-0.012-0.076-0.033c-0.664,3.499-1.883,5.698-3.211,7.078c0,0-0.363,4.527,0.225,7.243       c0.93,0.189,1.875,0.461,2.812,0.834c2.412,0.562,6.067,1.529,9.558,2.914C226.66,213.967,227.062,214.306,227.527,214.817z"/>
				</g>
			</g>
			<g>
				<g>
					<path fill="#8E4F3A" d="M218.77,189.433c-0.098-0.296-0.249-0.466-0.449-0.504c-0.427-0.093-0.917,0.452-0.936,0.478       l-0.007,0.005l-0.004,0.005v0.017c-0.114,1.019-0.656,6.101-0.42,6.338c0.021,0.021,0.046,0.033,0.076,0.033       c0.008,0,0.021-0.003,0.029-0.003c0.271-0.068,0.693-1.355,0.779-1.617c0.018-0.068,0.061-0.199,0.117-0.377       C218.29,192.774,219.073,190.354,218.77,189.433z"/>
				</g>
			</g>
			<g>
				<g>
					<path fill="#FFBE55" d="M255.362,271.489c-0.348,0.085-5.178,2.866-5.278,2.866c0.009-0.017,0.009-0.025,0.017-0.025       c0.084-0.059-3.003-5.877-6.19-11.916c-3.012-5.725-6.115-11.663-6.663-13.067c-1.963-5.022-10.26-19.577-10.26-19.577       s-2.19,3.999-3.045,10.613c-0.541,4.212-0.465,7.468-0.254,12.425c0.178,3.931,0.981,6.823,1.775,8.88       c0.019,0.058,0.043,0.117,0.068,0.177c0.018,0.052,0.043,0.11,0.059,0.16c0.043,0.11,0.085,0.212,0.128,0.313l-25.896,4.677       h-0.01l-3.729,0.677c0.008-0.008,0.008-0.025,0.017-0.034c0.117-0.447,0.347-1.936,0.583-3.991       c0.111-1.023,0.229-2.174,0.33-3.409c0.559-6.443,0.83-14.995-0.88-17.218c-3.247-4.229-3.535-10.217-3.34-13.557       c0,0-0.339,0.6-0.881,1.589c-0.05,0.093-0.108,0.195-0.16,0.296c-0.051,0.094-0.108,0.195-0.169,0.306       c-0.211,0.371-0.431,0.786-0.677,1.217c-0.16,0.296-0.33,0.6-0.499,0.914c-1.116,2.012-2.453,4.448-3.678,6.682       c-0.068,0.125-0.136,0.253-0.204,0.38c-0.101,0.178-0.203,0.354-0.296,0.533c-0.246,0.439-0.481,0.871-0.701,1.285       c-0.119,0.229-0.246,0.456-0.363,0.676c-0.027,0.043-0.052,0.094-0.076,0.135c-0.026,0.052-0.052,0.103-0.086,0.145       c-0.355,0.652-0.668,1.243-0.93,1.734c-0.042,0.067-0.076,0.144-0.109,0.211c-0.06,0.101-0.111,0.203-0.162,0.296       c-0.06,0.094-0.101,0.179-0.144,0.263c-0.05,0.11-0.109,0.211-0.152,0.304c-0.024,0.06-0.06,0.11-0.084,0.152       c-0.076,0.153-0.136,0.254-0.16,0.321c-1.133,2.47-0.298,4.068,1.125,5.465c0.117,0.117,0.244,0.236,0.372,0.355       c0.878,0.803,1.928,1.547,2.832,2.375l5.253,4.355l0.6,0.499l-0.033,0.067l-0.533,0.998l-2.165,4.044l-0.439,0.819       l-12.204-8.525c-5.684-5.184-5.7-9.168-1.082-18.301c0.05-0.094,0.109-0.211,0.169-0.33c0.101-0.187,0.211-0.406,0.338-0.65       c0.128-0.246,0.271-0.518,0.424-0.805c0.101-0.203,0.211-0.404,0.328-0.616c0.111-0.222,0.229-0.449,0.357-0.677       c0.185-0.339,0.379-0.694,0.574-1.066c0.693-1.295,1.488-2.756,2.308-4.254c0.153-0.278,0.306-0.557,0.458-0.836       c0.084-0.145,0.16-0.288,0.244-0.434c0.33-0.591,0.66-1.183,0.98-1.757c2.065-3.688,3.993-6.978,4.66-7.671       c1.125-1.168,6.242-4.813,11.35-7.4c-0.768,1.014-1.513,2.123-2.114,3.247c-0.228,0.439-0.447,0.879-0.634,1.318       c-0.828,1.962-1.115,3.933-0.329,5.624c1.868,3.993,7.468,2.936,9.116-0.287c0.449-0.887,0.609-1.936,0.314-3.077       c-0.203-0.745-0.365-1.515-0.51-2.293c-0.244-1.285-0.431-2.588-0.566-3.813c-0.691-0.889-0.607-1.7-0.607-1.7       s0.135-0.406,0.312-1.073c0.008-0.026,0.008-0.052,0.016-0.078c0.011-0.008,0.019-0.008,0.027-0.008       c0.024-0.009,0.049-0.017,0.067-0.025c4.025-1.269,6.926-0.922,8.474-0.523c0.786,0.201,1.218,0.423,1.285,0.456       c0,0,0.271,0.052,0.745,0.144c0.482,0.101,1.166,0.246,2.003,0.439c0.009,0,0.018,0,0.018,0.008       c2.411,0.559,6.055,1.523,9.54,2.902c0.321,0.135,0.728,0.473,1.192,0.98c5.049,5.574,17.582,31.782,18.073,33.025       c0.989,2.445,3.502,8.119,5.743,13.296C253.679,266.541,255.709,271.403,255.362,271.489z"/>
				</g>
			</g>
			<g>
				<g>
					<path fill="#8E4F3A" d="M217.301,193.32c-0.089,0.881-0.203,1.697-0.347,2.45c-0.664,3.499-1.883,5.698-3.211,7.078       c-0.322,0.33-0.647,0.612-0.973,0.858c0,0,0,0-0.004,0.004c-0.035,0.021-0.064,0.046-0.098,0.069       c-2.272,1.637-4.552,1.35-4.824,1.345c-0.172-0.004-1.137,0.024-2.352-0.566c-0.013-0.01-0.021-0.014-0.025-0.014       c-0.004-0.005-0.004-0.005-0.004-0.005c-0.208-0.101-0.423-0.22-0.639-0.363c-1.667-1.084-3.593-3.406-4.612-8.394       c-0.013-0.047-0.021-0.094-0.03-0.145c-0.254-1.272-0.452-2.725-0.571-4.366c-0.032-0.493-0.062-1.006-0.084-1.539       c0,0-0.003-0.16,0.009-0.444c0-0.038,0-0.076,0.004-0.123c0.147,0.114,0.254,0.229,0.264,0.24l0.008,0.01l0.005,0.017       c0.033,0.317,0.109,1.027,0.19,1.866c1.907,0.102,5.021-0.029,5.457-1.896c0.635-2.715,0.635-2.715,0.635-2.715l1.129,2.715       c0,0,4.337,1.334,7.003,0.021c0-0.051-1.46-3.866-1.46-3.866l4.026,3.845l0.56-0.262c0.008,0.089,0.018,0.178,0.021,0.271       C217.463,190.576,217.444,191.874,217.301,193.32z"/>
				</g>
			</g>
			<g>
				<g>
					<path fill="#8E4F3A" d="M208.48,215.303c-2.263-0.426-3.428-1.246-4.019-2.01c-0.694-0.891-0.611-1.699-0.611-1.699       s0.137-0.407,0.311-1.07c0.008-0.025,0.012-0.052,0.02-0.08c0.01-0.026,0.014-0.051,0.021-0.077       c0.377-1.469,0.889-4.011,0.623-6.189c-0.402-3.296,8.918-1.328,8.918-1.328s-0.363,4.527,0.225,7.243       c0.021,0.084,0.038,0.168,0.06,0.249c0.118,0.475,0.271,0.881,0.464,1.182C215.778,213.522,213.393,216.234,208.48,215.303z"/>
				</g>
			</g>
			<g>
				<g>
					<path fill="#8E4F3A" d="M216.797,210.933c0,0-1.243,3.148-2.943,6.833c-2.043,4.431-4.747,9.639-6.747,11.084       c0,0-0.897-2.897-1.892-6.374c0.456-0.884,0.612-1.93,0.312-3.076c-0.194-0.739-0.359-1.511-0.504-2.289       c-0.244-1.287-0.426-2.594-0.561-3.817c-0.694-0.891-0.611-1.699-0.611-1.699s0.137-0.407,0.311-1.07l0.051-0.012       c1.824-0.488,5.021-1.094,8.533-0.627c0.401,0.053,0.811,0.123,1.223,0.207c0.93,0.189,1.875,0.461,2.812,0.834       C216.785,210.93,216.794,210.93,216.797,210.933z"/>
				</g>
			</g>
			<g>
				<path fill="#16202E" d="M199.676,211.936c-0.051,0.161-0.105,0.318-0.165,0.471c-0.11,0.055-0.225,0.108-0.334,0.168      C199.343,212.357,199.511,212.144,199.676,211.936z"/>
			</g>
			<g>
				<polygon fill="#FAB46C" points="193.448,259.967 192.876,261.033 192.849,259.468     "/>
			</g>
			<g>
				<path fill="#784331" d="M199.271,260.815c0,0,1.757,0.468,2.313,0.548c0.559,0.082-0.13,1.112-0.812,1.143      C200.089,262.537,199.271,260.815,199.271,260.815z"/>
			</g>
			<g>
				<path fill="#8E4F3A" d="M201.522,263.768c-0.084,0.617-0.39,1.006-0.77,1.184c0,0-0.22,1.193-0.846,1.717      c0,0-0.026,0.144-0.094,0.347c-0.126,0.363-0.413,0.922-1.031,1.201c0,0-0.287,1.1-0.956,1.228c0,0-0.812-0.043-1.158-0.23      c0,0-0.39-0.252-0.77-0.49c-0.103-0.058-0.195-0.117-0.287-0.168c-0.144-0.076-0.271-0.145-0.355-0.179      c-0.136-0.058-0.355-0.126-0.609-0.228c-0.389-0.145-0.879-0.364-1.345-0.728c-0.507-0.397-1.792-1.591-2.588-2.342      c-0.389-0.365-0.66-0.618-0.66-0.618l1.641-2.47l1.168-1.81l0.101-0.16c0,0,0.171,0,0.449,0.016      c0.743,0.025,2.3,0.093,3.603,0.22c0.963,0.095,1.793,0.212,2.063,0.382c0.076,0.041,0.144,0.093,0.212,0.144      c0.008,0.009,0.008,0.009,0.016,0.009l0.043,0.041c0.575,0.457,0.83,1.024,1.117,1.295c0.033,0.033,0.168,0.177,0.338,0.372      c0.229,0.271,0.508,0.642,0.643,0.946C201.505,263.572,201.531,263.684,201.522,263.768z"/>
			</g>
			<g>
				<g>
					<path fill="#FFBE55" d="M193.448,259.967l-0.572,1.066l-2.605,4.866l-12.203-8.524c-5.684-5.184-5.695-9.168-1.077-18.306       c0.781-1.546,3.586-6.799,6.178-11.424l8.743,3.429c-2.274,4.12-8.196,14.858-8.647,15.846       c-1.901,4.144,1.761,5.856,4.333,8.198l5.252,4.35L193.448,259.967z"/>
				</g>
			</g>
			<g>
				<path fill="#633029" d="M205.462,204.542c0,0,3.705,1.751,7.31-0.835c0,0-1.003,2.066-3.653,2.361      C206.464,206.361,205.462,204.542,205.462,204.542z"/>
			</g>
		</g>
		<g>
			<path fill="#2A94F4" d="M287.954,247.505c-0.656,4.089-6.672,3.538-7.832,3.043c-0.896-0.38-9.02-6.591-12.586-9.87     c-0.314-0.287-0.613-0.562-0.885-0.815c-1.129-1.041-1.869-1.731-1.869-1.731l-2.771-13.656l-0.727-3.604     c1.052,0.469,1.745,0.808,1.91,0.892c0,0,0,0,0.006,0l0.037,0.038c0.681,0.655,1.473,1.431,2.31,2.268     c2.573,2.577,5.538,5.767,6.854,7.962c2.53,4.237,5.741,6.604,5.805,6.655l-3.63-19.313c0,0,3.144-1.154,6.029-0.257     C280.604,219.114,288.609,243.42,287.954,247.505z"/>
		</g>
		<g>
			<g>
				<g>
					<path fill="#EEA987" d="M308.39,295.557h-19.707c-1.43-5.439-1.752-8.177-2.369-8.9c-1.206-1.4-1.307,0.867-2.01,3.977       c-0.152,0.677-0.343,2.479-0.554,4.924h-17.334c-0.71-6.633-0.816-11.808,0.858-18.817c0.602-2.539,1.439-5.314,2.564-8.491       c0.452-1.274,0.91-2.467,1.375-3.579c0.773-1.861,1.569-3.503,2.372-4.947c11.839-21.247,26.317,0.547,28.94,4.842       c0,0.003,0,0.003,0.003,0.003c0.225,0.372,0.365,0.609,0.406,0.683c0.005,0.007,0.009,0.012,0.009,0.02       c0.004,0.005,0.004,0.014,0.004,0.019c0.111,0.616,3.719,20.494,4.705,25.523C307.843,291.778,308.098,293.45,308.39,295.557z"/>
				</g>
			</g>
			<g>
				<path fill="#FFBE55" d="M309.799,295.557h-44.778c0.004-7.493,0.867-13.939,2.029-19.216c1.094-4.967,2.446-8.896,3.585-11.685      c0.058-0.154,0.122-0.31,0.189-0.466c0.246-0.575,0.475-1.101,0.686-1.566c0.157-0.337,0.317-0.686,0.491-1.035      c0.601-1.231,0.985-1.862,0.985-1.862s0.212-0.005,0.6-0.005c3.869-0.017,25.141,0.119,28.94,4.842c0,0.003,0,0.003,0.003,0.003      c0.173,0.22,0.311,0.444,0.406,0.683c0.005,0.007,0.009,0.012,0.009,0.02c0.004,0.005,0.004,0.014,0.004,0.019      C304.472,269.119,307.683,284.776,309.799,295.557z"/>
			</g>
			<g>
				<path fill="#EEA886" d="M348.456,209.291c0,0,0.143,0.908-2.646,2.884c-2.788,1.974-1.164-5.292-1.164-5.292L348.456,209.291z"/>
			</g>
			<g>
				<g>
					<path fill="#EEA886" d="M349.901,200.696c0,0,0.905-2.802,1.271-3.454c0.363-0.654-1.022-1.899-1.708-0.223       c-0.683,1.678-1.097,2.748-1.097,2.748L349.901,200.696z"/>
				</g>
			</g>
			<g>
				<g>
					<path fill="#2F4563" d="M348.972,203.339l2.881-11.999c0.189-0.791-0.352-1.57-1.16-1.664l-5.771-0.688       c-0.725-0.086-1.387,0.414-1.503,1.135l-1.95,12.245c-0.124,0.774,0.434,1.493,1.217,1.565l4.844,0.443       C348.2,204.438,348.813,203.996,348.972,203.339z"/>
				</g>
			</g>
			<g>
				<g>
					<path fill="#EEB69B" d="M350.455,202.438c0,0,0.401-1.051-1.39-2.621c-2.38-2.087-5.672-4.455-6.396-4.287       c-1.042,0.239-0.771,1.057,0.805,2.121c1.575,1.062,2.098,1.407,2.098,1.407s-3.308-1.283-4.185-1.092       c-0.877,0.193-1.186,1.12-0.672,1.431c0.516,0.312,1.802,0.776,1.802,0.776s-1.456-0.353-1.766,0.187       c-0.226,0.398-0.452,0.996,0.843,1.635c0,0-1.219,0.766-0.016,1.815s1.401,1.729,1.342,3.223s1.059,3.755,1.059,3.755       l4.477-1.496c0,0,0.287-3.239,0.778-4.185C349.727,204.162,350.455,202.438,350.455,202.438z"/>
				</g>
			</g>
			<g>
				<g>
					<path fill="#FFBE55" d="M270.635,264.656c1.938-4.936,6.217-11.586,6.795-16c0.666-5.067-0.782-10.027-2.01-14.182       c-1.866-6.317-5.213-13.702-5.213-13.702s-16.647,3.149-20.515,4.083c-3.07,0.742-18.316,10.4-18.558,10.294       c-0.485-0.215-0.814-7.177-0.576-7.038c0.621,0.361,12.399-9.467,19.878-10.702c8.789-1.455,18.14-7.778,22.231-8.459       c6.396-1.062,11.969-2.167,11.969-2.167s3.95-2.807,9.956,0.066c5.966,2.854,8.792,4.188,10.711,5.431       c1.865,1.204,13.486,4.818,16.521,5.595c10.117,2.588,7.438,3.155,11.954-1.149l8.82-10.162l6.28,3.739l-15.806,18.561       c-1.765,1.553-9.668-0.425-14.749-0.777c-1.72-0.118-12.021-1.79-12.021-1.79c0.198,3.407,0.738,7.202-2.568,11.512       c-2.768,3.603-1.287,25.8-0.791,27.463L270.635,264.656z"/>
				</g>
			</g>
			<g>
				<g>
					<path fill="#EEB69B" d="M290.306,211.841c5.012-0.946,3.946-3.733,3.946-3.733s-0.233-1.574-0.322-3.561       c-0.022-0.509-0.038-1.048-0.034-1.591c0.002-0.826,0.041-1.67,0.137-2.465c0.41-3.362-9.651-4.972-9.651-4.972       s1.104,10.421-0.206,12.461C282.861,210.021,285.294,212.789,290.306,211.841z"/>
				</g>
			</g>
			<g>
				<g>
					<path fill="#EEB69B" d="M280.981,207.482c0,0,9.965,11.618,13.701,14.324c0,0,4.295-3.881,1.647-14.125       C296.33,207.682,291.156,203.706,280.981,207.482z"/>
				</g>
			</g>
			<g>
				<path fill="#EEB69B" d="M299.591,180.254c0,0,5.251,10.115,0.043,19.695c-5.205,9.582-15.437-4.172-16.099-5.786      c-0.661-1.613-4.167-10.741,2.81-13.513C293.32,177.875,298.104,177.508,299.591,180.254z"/>
			</g>
			<g>
				<path fill="#A77860" d="M289.457,200.703c0,0,0.911,1.99,4.473,3.844c-0.022-0.509-0.038-1.048-0.034-1.591      C293.896,202.956,291.483,202.665,289.457,200.703z"/>
			</g>
		</g>
		<path fill="#0E538C" d="M244.108,185.396c-1.787,0.184-13.303,2.143-13.303,26.254c0,10.501,0,21.818,0,21.818l23.613-1.858    C254.419,231.609,272.884,182.438,244.108,185.396z"/>
		<g opacity="0.8">
			<g>
				<path fill="#FFBE55" d="M255.362,271.489c-0.348,0.085-5.178,2.866-5.278,2.866c0.009-0.017,0.009-0.025,0.017-0.025      c0.084-0.059-3.003-5.877-6.19-11.916h0.008c2.521-1.599,5.033-1.852,7.427-1.276      C253.679,266.541,255.709,271.403,255.362,271.489z"/>
			</g>
		</g>
		<path fill="#2A94F4" d="M268.408,275.963c0,0-15.435,13.061-35.001,2.834c0,0,4.751-16.085,4.445-17.786    c-0.304-1.7-2.936-14.33-3.867-15.712c-0.182-0.268-0.536-1.122-0.994-2.341c-1.912-5.071-5.55-16.436-5.258-17.769v-0.009    c0.025-0.097,0.074-0.208,0.147-0.321l0.005-0.006c0.261-0.393,0.819-0.865,1.591-1.396c2.75-1.903,8.216-4.509,12.514-6.544    c4.582-2.168,14.964,2.018,19.294,3.956c1.052,0.469,1.745,0.808,1.91,0.892c0,0,0,0,0.006,0c0.02,0.014,0.032,0.017,0.032,0.017    s0,0.009,0.005,0.021c0.131,0.58,2.886,12.795,3.414,18.062c0.071,0.673,0.104,1.23,0.09,1.637    c-0.124,3.672-4.265,8.36-4.341,8.872c-0.081,0.521-0.762,11.278-0.222,12.95C262.718,264.991,268.408,275.963,268.408,275.963z"/>
		<g>
			<path fill="#EEA886" d="M242.321,216.373c3.181,9.132,9.887,14.684,12.098,15.236s1.726-10.736,0.185-12.38     c-0.407-0.439-0.638-1.168-0.753-2.002c-0.22-1.574-0.023-3.521,0.119-4.567c0.061-0.463,0.112-0.752,0.112-0.752     s-9.388-10.739-9.072-3.924C245.329,214.798,242.321,216.373,242.321,216.373z"/>
		</g>
		<g>
			<g>
				<path fill="#EEA886" d="M239.854,199.038c0,0-1.016-1.065-1.302,0.086c-0.284,1.149,1.079,4.43,1.235,4.907      c0,0,0.689,1.847,0.904,1.592C240.905,205.371,239.854,199.038,239.854,199.038z"/>
			</g>
			<g>
				<path fill="#EEA886" d="M256.423,198.169c0,0,0.877-1.175,1.3-0.071c0.421,1.108-0.532,4.529-0.63,5.02      c0,0-0.459,1.918-0.703,1.695C256.144,204.583,256.423,198.169,256.423,198.169z"/>
			</g>
			<g>
				<path fill="#EEA886" d="M248.97,187.727c0,0,8.781,0.787,8.326,14.348c-0.452,13.555-8.197,12.953-8.711,12.971      c-0.514,0.021-7.687,0.75-9.309-15.662C239.276,199.383,238.246,187.237,248.97,187.727z"/>
			</g>
			<g>
				<path fill="#0E538C" d="M240.896,198.475c0,0,9.316,5.836,13.883,4.651c0,0,1.51-0.093,2.137-1.78      c0.234-0.633,0.252-3.36,0.252-3.36s-0.439-10.979-10.53-10.468c-10.086,0.513-7.31,12.361-7.31,12.361l0.186,3.41      C239.513,203.289,241.067,202.393,240.896,198.475z"/>
			</g>
			<g>
				<path fill="#A77860" d="M245.705,214.355c0,0,3.857,2.205,7.845-1.213c0,0-0.686,2.752-3.908,2.991      C246.417,216.372,245.705,214.355,245.705,214.355z"/>
			</g>
		</g>
		<g>
			<path fill="#EEA886" d="M195.433,228.357c0,0-1.914,2.435-1.108,3.913s3.882,4.527,6.93,4.224c0.151,0.137,1.392-1.24,1.392-1.24     s-0.825-7.475-3.041-7.977C197.392,226.776,195.433,228.357,195.433,228.357z"/>
			<path fill="#EEA886" d="M195.433,228.357c0,0-3.396-3.6-3.355-5.588c0.043-1.989,0.055-1.664,1.527-0.081     c1.47,1.584,3.718,4.709,3.718,4.709L195.433,228.357z"/>
			<path fill="#EEA886" d="M197.565,227.621c0,0-1.83-4.6-1.059-6.433c0.771-1.833,0.663-1.524,1.446,0.489     c0.783,2.012,1.723,5.745,1.723,5.745L197.565,227.621z"/>
		</g>
		<g>
			<g>
				<path fill="#2A94F4" d="M237.37,226.826c-0.206,3.151-2.026,8.165-6.072,15.286c-0.096,0.17-0.193-0.085-0.29,0.084      c-4.247,7.413-7.874,16.395-9.362,17.03c-0.064,0.024-0.136,0.036-0.217,0.036c-1.832,0-7.948-6.569-7.948-6.569      c-5.272-5.175-15.19-13.895-15.19-13.895l4.1-6.024c0,0,4.316,3.682,7.693,6.587c2.165,1.867,3.227,2.407,5.025,3.896      c0.99,0.661,2.868,1.731,2.868,1.731c0.758-0.791,2.246-3.405,2.246-3.405l7.511-16.395v-0.009l0.147-0.321l0.005-0.006      c0.261-0.393,0.819-0.865,1.591-1.396C232.032,223.916,237.549,224.17,237.37,226.826z"/>
			</g>
		</g>
		<g>
			<g>
				<path fill="#CCE9FF" d="M204.554,194.125l0.812,2.482l-2.467-0.867c-0.13-0.046-0.274-0.024-0.388,0.061l-2.111,1.535      l0.062-2.611c0.006-0.139-0.058-0.271-0.173-0.354l-2.116-1.531l2.506-0.745c0.131-0.043,0.236-0.144,0.279-0.279l0.805-2.482      l1.482,2.148c0.082,0.114,0.214,0.188,0.353,0.188l2.611-0.006l-1.587,2.073C204.537,193.85,204.511,193.993,204.554,194.125z"/>
				<path fill="#2A94F4" d="M206.242,193.009l1.159-1.515c0.098-0.127,0.114-0.301,0.041-0.444c-0.07-0.146-0.215-0.233-0.375-0.233      h-3.248l-1.848-2.671c-0.09-0.136-0.247-0.201-0.409-0.177c-0.157,0.021-0.292,0.131-0.339,0.287l-1.001,3.09l-3.11,0.926      c-0.156,0.047-0.271,0.178-0.297,0.334c-0.028,0.162,0.037,0.32,0.17,0.415l2.626,1.902l-0.079,3.251      c-0.005,0.16,0.084,0.309,0.229,0.385c0.064,0.03,0.127,0.047,0.194,0.047c0.089,0,0.179-0.025,0.249-0.08l2.629-1.912      l3.062,1.078c0.151,0.055,0.322,0.017,0.436-0.098c0.114-0.11,0.155-0.279,0.105-0.431l-1.007-3.089l0.092-0.119      L206.242,193.009z M202.898,195.74c-0.13-0.046-0.274-0.024-0.388,0.061l-2.111,1.535l0.062-2.611      c0.006-0.139-0.058-0.271-0.173-0.354l-2.116-1.531l2.506-0.745c0.131-0.043,0.236-0.144,0.279-0.279l0.805-2.482l1.482,2.148      c0.082,0.114,0.214,0.188,0.353,0.188l2.611-0.006l-1.587,2.073c-0.085,0.114-0.111,0.258-0.068,0.39l0.812,2.482      L202.898,195.74z"/>
			</g>
			<g>
				<polygon fill="#2A94F4" points="209.466,192.605 210.239,193.363 205.521,193.955 206.242,193.009 209.462,192.605     "/>
			</g>
			<g>
				<path fill="#2A94F4" d="M218.609,190.736c-0.048-0.152-0.179-0.267-0.341-0.289l-3.214-0.473l-1.429-2.916      c-0.073-0.144-0.217-0.236-0.379-0.236c-0.003,0-0.003,0-0.003,0c-0.16,0-0.306,0.088-0.377,0.233l-1.443,2.91l-3.215,0.461      c-0.16,0.024-0.292,0.136-0.342,0.288c-0.051,0.151-0.01,0.321,0.106,0.436l1.488,1.455h0.004l0.773,0.758l0.057,0.055      l-0.556,3.203c-0.029,0.155,0.038,0.317,0.165,0.413c0.131,0.095,0.307,0.107,0.448,0.031l2.877-1.503l2.87,1.515      c0.062,0.034,0.13,0.052,0.197,0.052c0.09,0,0.174-0.03,0.25-0.08c0.131-0.098,0.195-0.259,0.17-0.416l-0.547-3.201l2.332-2.265      C218.617,191.058,218.659,190.888,218.609,190.736z M215.423,192.978c-0.098,0.097-0.144,0.237-0.122,0.378l0.439,2.575      l-2.31-1.222c-0.064-0.033-0.132-0.047-0.2-0.047c-0.067,0-0.135,0.014-0.198,0.047l-2.315,1.209l0.449-2.572      c0.009-0.05,0.009-0.101,0-0.152c-0.012-0.084-0.055-0.16-0.122-0.225l-0.508-0.494l-1.357-1.332l2.584-0.369      c0.141-0.021,0.258-0.105,0.322-0.232l1.159-2.339l1.149,2.342c0.064,0.129,0.184,0.214,0.317,0.235l2.587,0.379      L215.423,192.978z"/>
				<path fill="#CCE9FF" d="M215.301,193.355l0.439,2.575l-2.31-1.222c-0.064-0.033-0.132-0.047-0.2-0.047      c-0.067,0-0.135,0.014-0.198,0.047l-2.315,1.209l0.449-2.572c0.009-0.05,0.009-0.101,0-0.152      c-0.012-0.084-0.055-0.16-0.122-0.225l-0.508-0.494l-1.357-1.332l2.584-0.369c0.141-0.021,0.258-0.105,0.322-0.232l1.159-2.339      l1.149,2.342c0.064,0.129,0.184,0.214,0.317,0.235l2.587,0.379l-1.875,1.819C215.325,193.074,215.279,193.215,215.301,193.355z"/>
			</g>
		</g>
		<g>
			<g>
				<path fill="#CCE9FF" d="M245.735,204.946l0.812,2.484l-2.468-0.869c-0.131-0.046-0.274-0.024-0.388,0.06l-2.111,1.536      l0.062-2.609c0.005-0.141-0.058-0.271-0.174-0.355l-2.114-1.532l2.505-0.744c0.132-0.043,0.236-0.144,0.279-0.279l0.804-2.484      l1.485,2.149c0.081,0.114,0.21,0.187,0.35,0.187l2.61-0.003l-1.586,2.073C245.717,204.672,245.692,204.816,245.735,204.946z"/>
				<path fill="#2A94F4" d="M247.423,203.83l1.16-1.516c0.098-0.127,0.113-0.3,0.043-0.443c-0.072-0.145-0.217-0.233-0.379-0.233      h-3.249l-1.843-2.669c-0.095-0.136-0.25-0.203-0.412-0.177c-0.154,0.02-0.29,0.13-0.338,0.285l-1.003,3.089l-3.108,0.927      c-0.157,0.048-0.271,0.179-0.296,0.334c-0.031,0.162,0.038,0.322,0.169,0.416l2.626,1.903l-0.079,3.249      c-0.005,0.161,0.084,0.309,0.228,0.385c0.063,0.029,0.128,0.048,0.195,0.048c0.089,0,0.179-0.026,0.249-0.081l2.628-1.913      l3.062,1.079c0.152,0.056,0.322,0.017,0.437-0.098c0.113-0.108,0.156-0.279,0.105-0.431l-1.008-3.09l0.095-0.117L247.423,203.83      z M244.08,206.562c-0.131-0.046-0.274-0.024-0.388,0.06l-2.111,1.536l0.062-2.609c0.005-0.141-0.058-0.271-0.174-0.355      l-2.114-1.532l2.505-0.744c0.132-0.043,0.236-0.144,0.279-0.279l0.804-2.484l1.485,2.149c0.081,0.114,0.21,0.187,0.35,0.187      l2.61-0.003l-1.586,2.073c-0.086,0.113-0.11,0.258-0.067,0.388l0.812,2.484L244.08,206.562z"/>
			</g>
			<g>
				<polygon fill="#2A94F4" points="250.647,203.427 251.423,204.185 246.705,204.777 247.423,203.83 250.643,203.427     "/>
			</g>
			<g>
				<path fill="#2A94F4" d="M259.79,201.559c-0.048-0.154-0.178-0.268-0.338-0.289l-3.217-0.475l-1.43-2.913      c-0.071-0.144-0.215-0.238-0.375-0.238c-0.006,0-0.006,0-0.006,0c-0.161,0-0.305,0.089-0.376,0.233l-1.444,2.91l-3.214,0.463      c-0.16,0.024-0.291,0.135-0.342,0.287c-0.052,0.152-0.009,0.32,0.104,0.435l1.489,1.455h0.005l0.775,0.758l0.054,0.055      l-0.555,3.203c-0.03,0.157,0.038,0.317,0.165,0.415c0.133,0.094,0.304,0.105,0.447,0.029l2.878-1.502l2.869,1.515      c0.062,0.033,0.131,0.052,0.198,0.052c0.089,0,0.174-0.03,0.251-0.081c0.129-0.098,0.193-0.258,0.167-0.415l-0.545-3.202      l2.332-2.264C259.799,201.879,259.84,201.711,259.79,201.559z M256.604,203.8c-0.098,0.098-0.145,0.236-0.124,0.377l0.44,2.575      l-2.309-1.221c-0.064-0.035-0.133-0.048-0.2-0.048s-0.136,0.013-0.198,0.048l-2.314,1.209l0.448-2.572      c0.01-0.051,0.01-0.102,0-0.151c-0.012-0.086-0.055-0.162-0.122-0.225l-0.508-0.496l-1.357-1.331l2.583-0.37      c0.141-0.02,0.26-0.105,0.322-0.231l1.159-2.34l1.152,2.344c0.062,0.127,0.182,0.213,0.316,0.232l2.584,0.382L256.604,203.8z"/>
				<path fill="#CCE9FF" d="M256.48,204.177l0.44,2.575l-2.309-1.221c-0.064-0.035-0.133-0.048-0.2-0.048s-0.136,0.013-0.198,0.048      l-2.314,1.209l0.448-2.572c0.01-0.051,0.01-0.102,0-0.151c-0.012-0.086-0.055-0.162-0.122-0.225l-0.508-0.496l-1.357-1.331      l2.583-0.37c0.141-0.02,0.26-0.105,0.322-0.231l1.159-2.34l1.152,2.344c0.062,0.127,0.182,0.213,0.316,0.232l2.584,0.382      l-1.873,1.818C256.507,203.897,256.46,204.036,256.48,204.177z"/>
			</g>
		</g>
		<path fill="#FCD2B1" d="M296.18,177.097c0,0-12.802,14.4-15.76,14.677c-2.958,0.275-1.411-9.335-1.411-9.335L296.18,177.097z"/>
		<g>
			<g>
				<path fill="#CCE9FF" d="M292.271,190.558l0.968,2.427l-2.518-0.709c-0.133-0.038-0.275-0.008-0.385,0.082l-2.008,1.667      l-0.103-2.608c-0.005-0.141-0.076-0.268-0.195-0.344l-2.208-1.396l2.451-0.901c0.129-0.05,0.228-0.159,0.263-0.296l0.644-2.529      l1.617,2.052c0.09,0.107,0.223,0.172,0.363,0.164l2.605-0.171l-1.454,2.169C292.237,190.283,292.22,190.429,292.271,190.558z"/>
				<path fill="#2A94F4" d="M293.886,189.335l1.061-1.584c0.089-0.132,0.094-0.308,0.015-0.446c-0.081-0.141-0.229-0.22-0.392-0.208      l-3.242,0.205l-2.011-2.547c-0.101-0.131-0.261-0.187-0.419-0.15c-0.156,0.029-0.283,0.148-0.321,0.308l-0.804,3.145      l-3.047,1.123c-0.151,0.057-0.257,0.195-0.273,0.352c-0.019,0.162,0.059,0.319,0.196,0.403l2.74,1.733l0.127,3.247      c0.005,0.161,0.103,0.302,0.253,0.37c0.064,0.026,0.129,0.039,0.197,0.034c0.087-0.005,0.175-0.036,0.244-0.096l2.501-2.076      l3.125,0.884c0.155,0.045,0.322-0.004,0.428-0.124c0.107-0.117,0.139-0.289,0.079-0.438l-1.201-3.019l0.086-0.125      L293.886,189.335z M290.722,192.275c-0.133-0.038-0.275-0.008-0.385,0.082l-2.008,1.667l-0.103-2.608      c-0.005-0.141-0.076-0.268-0.195-0.344l-2.208-1.396l2.451-0.901c0.129-0.05,0.228-0.159,0.263-0.296l0.644-2.529l1.617,2.052      c0.09,0.107,0.223,0.172,0.363,0.164l2.605-0.171l-1.454,2.169c-0.075,0.119-0.093,0.265-0.041,0.394l0.968,2.427      L290.722,192.275z"/>
			</g>
			<g>
				<polygon fill="#2A94F4" points="297.077,188.73 297.897,189.438 293.228,190.326 293.886,189.335 297.073,188.73     "/>
			</g>
			<g>
				<path fill="#2A94F4" d="M306.082,186.286c-0.054-0.15-0.192-0.257-0.354-0.267l-3.239-0.269l-1.612-2.82      c-0.079-0.139-0.229-0.223-0.39-0.211c-0.005,0-0.005,0-0.005,0c-0.16,0.01-0.298,0.107-0.36,0.256l-1.256,2.996l-3.18,0.663      c-0.158,0.036-0.284,0.153-0.323,0.311c-0.041,0.154,0.012,0.32,0.132,0.428l1.579,1.357h0.004l0.82,0.707l0.058,0.051      l-0.35,3.231c-0.019,0.158,0.06,0.315,0.191,0.403c0.137,0.084,0.311,0.086,0.449,0.001l2.776-1.68l2.959,1.328      c0.066,0.03,0.134,0.043,0.201,0.04c0.09-0.007,0.172-0.042,0.243-0.096c0.125-0.107,0.179-0.271,0.144-0.427l-0.748-3.161      l2.184-2.407C306.112,186.604,306.144,186.435,306.082,186.286z M303.046,188.724c-0.091,0.104-0.129,0.246-0.099,0.386      l0.603,2.543l-2.383-1.075c-0.066-0.029-0.135-0.038-0.202-0.034c-0.067,0.005-0.134,0.022-0.194,0.061l-2.233,1.354      l0.284-2.596c0.005-0.051,0.001-0.103-0.01-0.152c-0.019-0.084-0.064-0.156-0.136-0.216l-0.538-0.462l-1.441-1.244l2.558-0.53      c0.137-0.03,0.251-0.122,0.308-0.253l1.007-2.408l1.299,2.266c0.069,0.123,0.192,0.2,0.33,0.212l2.604,0.218L303.046,188.724z"/>
				<path fill="#CCE9FF" d="M302.947,189.109l0.603,2.543l-2.383-1.075c-0.066-0.029-0.135-0.038-0.202-0.034      c-0.067,0.005-0.134,0.022-0.194,0.061l-2.233,1.354l0.284-2.596c0.005-0.051,0.001-0.103-0.01-0.152      c-0.019-0.084-0.064-0.156-0.136-0.216l-0.538-0.462l-1.441-1.244l2.558-0.53c0.137-0.03,0.251-0.122,0.308-0.253l1.007-2.408      l1.299,2.266c0.069,0.123,0.192,0.2,0.33,0.212l2.604,0.218l-1.755,1.933C302.955,188.828,302.917,188.97,302.947,189.109z"/>
			</g>
		</g>
		<g>
			<polygon fill="#2A94F4" points="285.977,190.967 286.634,191.828 282.2,192.686 282.2,191.704 285.977,190.967    "/>
		</g>
		<g>
			<circle fill="#FFBE55" cx="356.558" cy="152.982" r="14.392"/>
			<path fill="#FFFFFF" d="M364.918,148.702c-0.366-1.108-1.051-2.167-2.101-2.752c-1.669-0.925-3.887-0.411-5.375,0.759     c-0.32,0.252-0.613,0.531-0.884,0.828c-0.271-0.297-0.563-0.576-0.884-0.828c-1.488-1.17-3.709-1.684-5.375-0.759     c-1.051,0.585-1.734,1.644-2.102,2.752c-1.063,3.21,0.305,6.802,2.649,9.316c1.601,1.718,3.597,3.022,5.711,4.147     c2.112-1.125,4.109-2.43,5.71-4.147C364.612,155.504,365.981,151.912,364.918,148.702z"/>
		</g>
		<g>
			<circle fill="#FFBE55" cx="403.634" cy="266.702" r="14.392"/>
			<path fill="#FFFFFF" d="M410.839,260.677c-0.604-0.999-1.504-1.882-2.658-2.219c-1.83-0.533-3.88,0.46-5.072,1.93     c-0.258,0.319-0.479,0.655-0.68,1.004c-0.33-0.229-0.677-0.436-1.045-0.61c-1.71-0.813-3.988-0.823-5.408,0.449     c-0.897,0.803-1.328,1.986-1.44,3.148c-0.327,3.366,1.802,6.565,4.646,8.498c1.94,1.321,4.176,2.152,6.486,2.781     c1.812-1.565,3.471-3.28,4.65-5.311C412.048,267.378,412.588,263.57,410.839,260.677z"/>
		</g>
		<g>
			<g>
				<circle fill="#FFBE55" cx="378.799" cy="217.343" r="11.902"/>
			</g>
			<g>
				<path fill="#0E538C" d="M383.384,220.394c0.99,2.636,0.445,5.279-1.217,5.905c-1.663,0.625-3.815-1.003-4.808-3.639      c-0.991-2.639-0.446-5.281,1.217-5.907C380.24,216.127,382.391,217.758,383.384,220.394z"/>
			</g>
			<g>
				<g>
					
						<ellipse transform="matrix(0.9359 -0.3522 0.3522 0.9359 -52.0847 144.8206)" fill="#0E538C" cx="371.972" cy="215.556" rx="1.44" ry="2.446"/>
				</g>
				<g>
					
						<ellipse transform="matrix(0.9358 -0.3524 0.3524 0.9358 -49.9808 148.4621)" fill="#0E538C" cx="382.755" cy="211.501" rx="1.44" ry="2.445"/>
				</g>
			</g>
			<g>
				<g>
					<path fill="#0E538C" d="M369.599,213.475c-0.101,0.037-0.215,0.041-0.323,0.006c-0.258-0.086-0.396-0.361-0.313-0.617       c0.019-0.048,0.396-1.168,1.368-1.594c0.561-0.242,1.171-0.217,1.826,0.082c0.246,0.11,0.355,0.4,0.243,0.648       c-0.111,0.244-0.4,0.353-0.647,0.242c-0.396-0.181-0.73-0.202-1.027-0.075c-0.569,0.249-0.83,0.995-0.832,1.002       C369.845,213.316,369.733,213.424,369.599,213.475z"/>
				</g>
				<g>
					<path fill="#0E538C" d="M383.169,208.373c-0.135,0.049-0.289,0.041-0.42-0.037l0,0c-0.006-0.004-0.7-0.396-1.294-0.205       c-0.303,0.094-0.54,0.338-0.719,0.732c-0.111,0.247-0.4,0.354-0.647,0.244c-0.246-0.111-0.355-0.402-0.243-0.646       c0.298-0.658,0.736-1.082,1.319-1.266c1.015-0.321,2.036,0.273,2.079,0.297c0.233,0.138,0.311,0.438,0.176,0.67       C383.359,208.262,383.268,208.333,383.169,208.373z"/>
				</g>
			</g>
		</g>
		<g>
			<g>
				<circle fill="#FFBE55" cx="361.838" cy="315.039" r="11.902"/>
			</g>
			<g>
				
					<ellipse transform="matrix(0.9706 0.2408 -0.2408 0.9706 87.5009 -77.46)" fill="#0E538C" cx="360.763" cy="319.375" rx="3.219" ry="5.099"/>
			</g>
			<g>
				<g>
					
						<ellipse transform="matrix(0.9708 0.24 -0.24 0.9708 84.7607 -76.6782)" fill="#0E538C" cx="357.228" cy="309.695" rx="1.441" ry="2.445"/>
				</g>
				<g>
					
						<ellipse transform="matrix(0.9706 0.2408 -0.2408 0.9706 86.0746 -79.5131)" fill="#0E538C" cx="368.411" cy="312.468" rx="1.44" ry="2.446"/>
				</g>
			</g>
			<g>
				<g>
					<path fill="#0E538C" d="M356.452,306.635c-0.104-0.024-0.2-0.087-0.27-0.18c-0.162-0.213-0.121-0.521,0.092-0.684       c0.041-0.03,0.987-0.738,2.032-0.537c0.597,0.116,1.086,0.485,1.455,1.103c0.142,0.229,0.067,0.531-0.167,0.671       c-0.229,0.14-0.529,0.065-0.669-0.167c-0.225-0.373-0.489-0.581-0.806-0.646c-0.61-0.117-1.248,0.35-1.254,0.354       C356.745,306.644,356.593,306.67,356.452,306.635z"/>
				</g>
				<g>
					<path fill="#0E538C" d="M370.524,310.125c-0.139-0.036-0.261-0.13-0.325-0.27l0,0c-0.003-0.006-0.352-0.725-0.949-0.902       c-0.302-0.094-0.637-0.027-1.01,0.196c-0.229,0.14-0.529,0.066-0.67-0.166c-0.14-0.231-0.065-0.532,0.164-0.671       c0.621-0.372,1.223-0.474,1.806-0.294c1.018,0.31,1.524,1.381,1.546,1.423c0.113,0.246,0.006,0.537-0.236,0.652       C370.742,310.141,370.628,310.149,370.524,310.125z"/>
				</g>
			</g>
		</g>
		<g>
			<circle fill="#2A94F4" cx="398.558" cy="177.583" r="13.379"/>
			<g>
				<path fill="#FFFFFF" d="M405.778,177.98c0.549-0.072,1.028-0.466,1.187-1.032c0.212-0.759-0.233-1.544-0.991-1.755l-4.6-1.277      c0.024-0.035,1.443-1.87,1.947-3.681c0.507-1.823-1.741-2.217-2.03-1.171c-0.291,1.047-1.409,2.69-2.833,3.059      c-1.426,0.367-2.367,2.118-2.367,2.118l-0.191,0.69l-0.107,0.39l-0.509,1.83l-0.147,0.526l-0.432,1.559l-0.184,0.662      l-0.58,2.083l8.113,2.255c0.759,0.211,1.543-0.233,1.755-0.991l0,0c0.089-0.319,0.06-0.642-0.058-0.925      c0.524-0.092,0.979-0.475,1.131-1.023c0.101-0.361,0.051-0.729-0.11-1.037c0.575-0.051,1.083-0.449,1.247-1.037      C406.143,178.776,406.038,178.32,405.778,177.98z"/>
				
					<rect x="390.495" y="173.097" transform="matrix(-0.9634 -0.268 0.268 -0.9634 723.2228 453.234)" fill="#FFFFFF" width="4.089" height="8.336"/>
			</g>
			<circle fill="#4779E1" cx="392.306" cy="179.966" r="0.537"/>
		</g>
		<g>
			<circle fill="#2A94F4" cx="322.001" cy="112.613" r="8.68"/>
			<g>
				<path fill="#FFFFFF" d="M326.661,112.061c0.342-0.107,0.604-0.412,0.642-0.791c0.05-0.51-0.32-0.962-0.827-1.012l-3.084-0.304      c0.012-0.023,0.714-1.356,0.834-2.568c0.121-1.223-1.359-1.223-1.427-0.522c-0.071,0.702-0.6,1.877-1.47,2.271      c-0.871,0.393-1.277,1.617-1.277,1.617l-0.045,0.463l-0.026,0.261l-0.12,1.228l-0.035,0.352l-0.103,1.044l-0.044,0.444      l-0.138,1.396l5.437,0.537c0.509,0.05,0.961-0.322,1.011-0.829l0,0c0.021-0.215-0.033-0.418-0.141-0.587      c0.327-0.115,0.573-0.413,0.609-0.778c0.025-0.242-0.05-0.472-0.187-0.65c0.362-0.098,0.643-0.408,0.683-0.803      C326.981,112.529,326.864,112.25,326.661,112.061z"/>
				
					<rect x="316.794" y="110.377" transform="matrix(-0.9952 -0.0983 0.0983 -0.9952 623.5836 256.8858)" fill="#FFFFFF" width="2.652" height="5.408"/>
			</g>
			<circle fill="#4779E1" cx="318.271" cy="114.833" r="0.349"/>
		</g>
		<g>
			<circle fill="#2A94F4" cx="229.406" cy="113.873" r="8.68"/>
			<g>
				<path fill="#FFFFFF" d="M233.482,111.548c0.272-0.232,0.396-0.614,0.282-0.979c-0.151-0.488-0.671-0.761-1.156-0.607      l-2.958,0.922c0.001-0.026,0.127-1.526-0.233-2.689c-0.366-1.175-1.729-0.597-1.518,0.074c0.208,0.674,0.18,1.962-0.47,2.666      c-0.647,0.7-0.545,1.987-0.545,1.987l0.141,0.442l0.078,0.251l0.366,1.177l0.105,0.339l0.312,1l0.134,0.427l0.418,1.338      l5.215-1.626c0.487-0.153,0.76-0.672,0.605-1.157l0,0c-0.062-0.206-0.191-0.372-0.356-0.484      c0.256-0.234,0.367-0.604,0.258-0.954c-0.073-0.233-0.229-0.417-0.425-0.527c0.295-0.231,0.432-0.626,0.314-1.004      C233.96,111.855,233.743,111.643,233.482,111.548z"/>
				
					<rect x="224.69" y="113.114" transform="matrix(-0.9548 0.2972 -0.2972 -0.9548 476.2382 159.2403)" fill="#FFFFFF" width="2.652" height="5.408"/>
			</g>
			<circle fill="#4779E1" cx="226.839" cy="117.373" r="0.348"/>
		</g>
		<g>
			<circle fill="#2A94F4" cx="348.368" cy="260.25" r="13.38"/>
			<g>
				<path fill="#FFFFFF" d="M354.505,256.425c0.406-0.375,0.573-0.972,0.377-1.526c-0.263-0.741-1.077-1.131-1.818-0.867l-4.5,1.6      c0-0.042,0.105-2.359-0.521-4.13c-0.635-1.784-2.699-0.814-2.334,0.208c0.363,1.024,0.395,3.012-0.561,4.131      c-0.955,1.12-0.72,3.094-0.72,3.094l0.241,0.676l0.135,0.38l0.637,1.791l0.182,0.515l0.543,1.523l0.229,0.647l0.724,2.038      l7.936-2.819c0.741-0.263,1.128-1.079,0.865-1.82l0,0c-0.11-0.312-0.32-0.558-0.58-0.724c0.379-0.377,0.529-0.949,0.339-1.486      c-0.126-0.354-0.376-0.625-0.687-0.785c0.44-0.371,0.629-0.99,0.424-1.565C355.26,256.867,354.913,256.556,354.505,256.425z"/>
				
					<rect x="341.217" y="259.281" transform="matrix(-0.9423 0.3347 -0.3347 -0.9423 754.8954 396.8354)" fill="#FFFFFF" width="4.088" height="8.337"/>
			</g>
			<circle fill="#4779E1" cx="344.623" cy="265.794" r="0.538"/>
		</g>
		<g>
			<circle fill="#FFBE55" cx="142.813" cy="152.982" r="14.392"/>
			<path fill="#FFFFFF" d="M134.452,148.702c0.367-1.108,1.051-2.167,2.102-2.752c1.667-0.925,3.885-0.411,5.373,0.759     c0.322,0.252,0.613,0.531,0.886,0.828c0.271-0.297,0.563-0.576,0.884-0.828c1.488-1.17,3.707-1.684,5.373-0.759     c1.053,0.585,1.734,1.644,2.104,2.752c1.063,3.21-0.307,6.802-2.65,9.316c-1.6,1.718-3.598,3.022-5.71,4.147     c-2.114-1.125-4.111-2.43-5.71-4.147C134.757,155.504,133.388,151.912,134.452,148.702z"/>
		</g>
		<g>
			<circle fill="#FFBE55" cx="278.981" cy="101.906" r="11.632"/>
			<path fill="#FFFFFF" d="M272.226,98.447c0.296-0.896,0.849-1.752,1.698-2.225c1.348-0.746,3.14-0.332,4.343,0.613     c0.259,0.204,0.495,0.431,0.715,0.67c0.218-0.239,0.456-0.466,0.714-0.67c1.202-0.945,2.996-1.359,4.344-0.613     c0.849,0.473,1.401,1.328,1.698,2.225c0.86,2.594-0.246,5.498-2.141,7.529c-1.293,1.389-2.907,2.443-4.615,3.352     c-1.708-0.908-3.322-1.963-4.615-3.352C272.472,103.945,271.365,101.041,272.226,98.447z"/>
		</g>
		<g>
			<circle fill="#FFBE55" cx="95.736" cy="266.702" r="14.393"/>
			<path fill="#FFFFFF" d="M88.53,260.677c0.604-0.999,1.506-1.882,2.66-2.219c1.83-0.533,3.88,0.46,5.072,1.93     c0.256,0.319,0.479,0.655,0.68,1.004c0.328-0.229,0.677-0.436,1.045-0.61c1.71-0.813,3.987-0.823,5.408,0.449     c0.896,0.803,1.328,1.986,1.44,3.148c0.327,3.366-1.804,6.565-4.646,8.498c-1.941,1.321-4.178,2.152-6.487,2.781     c-1.812-1.565-3.47-3.28-4.649-5.311C87.321,267.378,86.783,263.57,88.53,260.677z"/>
		</g>
		<g>
			<g>
				<circle fill="#FFBE55" cx="128.375" cy="217.343" r="11.902"/>
			</g>
			<g>
				<path fill="#0E538C" d="M123.79,220.394c-0.991,2.636-0.445,5.279,1.217,5.905c1.663,0.625,3.814-1.003,4.808-3.639      c0.991-2.639,0.446-5.281-1.219-5.907C126.934,216.127,124.781,217.758,123.79,220.394z"/>
			</g>
			<g>
				<g>
					
						<ellipse transform="matrix(-0.9358 -0.3524 0.3524 -0.9358 185.7597 464.9303)" fill="#0E538C" cx="135.201" cy="215.556" rx="1.44" ry="2.445"/>
				</g>
				<g>
					
						<ellipse transform="matrix(-0.9359 -0.3522 0.3522 -0.9359 166.3719 453.2708)" fill="#0E538C" cx="124.417" cy="211.501" rx="1.44" ry="2.445"/>
				</g>
			</g>
			<g>
				<g>
					<path fill="#0E538C" d="M137.574,213.475c0.102,0.037,0.215,0.041,0.324,0.006c0.257-0.086,0.396-0.361,0.312-0.617       c-0.018-0.048-0.395-1.168-1.369-1.594c-0.559-0.242-1.171-0.217-1.825,0.082c-0.247,0.11-0.354,0.4-0.241,0.648       c0.108,0.244,0.399,0.353,0.645,0.242c0.398-0.181,0.73-0.202,1.029-0.075c0.569,0.249,0.83,0.995,0.832,1.002       C137.329,213.316,137.44,213.424,137.574,213.475z"/>
				</g>
				<g>
					<path fill="#0E538C" d="M124.005,208.373c0.133,0.049,0.287,0.041,0.419-0.037l0,0c0.006-0.004,0.699-0.396,1.294-0.205       c0.302,0.094,0.538,0.338,0.718,0.732c0.113,0.247,0.402,0.354,0.648,0.244c0.247-0.111,0.356-0.402,0.243-0.646       c-0.297-0.658-0.737-1.082-1.321-1.266c-1.012-0.321-2.035,0.273-2.078,0.297c-0.23,0.138-0.309,0.438-0.174,0.67       C123.814,208.262,123.906,208.333,124.005,208.373z"/>
				</g>
			</g>
		</g>
		<g>
			<g>
				<circle fill="#FFBE55" cx="182.477" cy="107.798" r="9.993"/>
			</g>
			<g>
				<path fill="#0E538C" d="M180.989,112.174c0.689,2.262,2.405,3.741,3.832,3.308c1.428-0.437,2.023-2.623,1.337-4.885      c-0.692-2.262-2.408-3.743-3.836-3.307C180.896,107.726,180.299,109.911,180.989,112.174z"/>
			</g>
			<g>
				<g>
					
						<ellipse transform="matrix(-0.9566 0.2914 -0.2914 -0.9566 394.1804 147.5167)" fill="#0E538C" cx="186.104" cy="103.113" rx="1.21" ry="2.052"/>
				</g>
				<g>
					
						<ellipse transform="matrix(-0.9565 0.2916 -0.2916 -0.9565 376.9103 155.6881)" fill="#0E538C" cx="176.852" cy="105.936" rx="1.209" ry="2.053"/>
				</g>
			</g>
			<g>
				<g>
					<path fill="#0E538C" d="M186.619,100.513c0.086-0.027,0.163-0.083,0.216-0.162c0.129-0.188,0.08-0.444-0.107-0.572       c-0.036-0.022-0.858-0.574-1.726-0.357c-0.495,0.122-0.891,0.454-1.173,0.987c-0.107,0.2-0.031,0.449,0.17,0.557       c0.2,0.105,0.447,0.03,0.554-0.17c0.173-0.324,0.385-0.509,0.646-0.578c0.508-0.124,1.064,0.237,1.068,0.241       C186.373,100.532,186.503,100.547,186.619,100.513z"/>
				</g>
				<g>
					<path fill="#0E538C" d="M174.976,104.065c0.113-0.036,0.213-0.121,0.261-0.24l0,0c0.002-0.004,0.263-0.622,0.755-0.799       c0.249-0.093,0.531-0.051,0.855,0.119c0.198,0.107,0.447,0.031,0.555-0.17c0.106-0.199,0.031-0.448-0.17-0.554       c-0.533-0.284-1.044-0.342-1.526-0.165c-0.837,0.305-1.216,1.224-1.23,1.262c-0.084,0.21,0.019,0.449,0.227,0.535       C174.792,104.089,174.89,104.09,174.976,104.065z"/>
				</g>
			</g>
		</g>
		<g>
			<g>
				<circle fill="#FFBE55" cx="136.462" cy="315.039" r="11.902"/>
			</g>
			<g>
				
					<ellipse transform="matrix(-0.9706 0.2408 -0.2408 -0.9706 347.9408 596.2294)" fill="#0E538C" cx="137.538" cy="319.375" rx="3.218" ry="5.099"/>
			</g>
			<g>
				<g>
					
						<ellipse transform="matrix(-0.9707 0.2401 -0.2401 -0.9707 352.3889 576.4509)" fill="#0E538C" cx="141.073" cy="309.695" rx="1.44" ry="2.445"/>
				</g>
				<g>
					
						<ellipse transform="matrix(-0.9706 0.2407 -0.2407 -0.9706 331.1745 584.484)" fill="#0E538C" cx="129.891" cy="312.468" rx="1.44" ry="2.446"/>
				</g>
			</g>
			<g>
				<g>
					<path fill="#0E538C" d="M141.849,306.635c0.104-0.024,0.2-0.087,0.271-0.18c0.162-0.213,0.121-0.521-0.093-0.684       c-0.042-0.03-0.986-0.738-2.031-0.537c-0.598,0.116-1.088,0.485-1.457,1.103c-0.141,0.229-0.065,0.531,0.167,0.671       c0.23,0.14,0.529,0.065,0.669-0.167c0.228-0.373,0.489-0.581,0.806-0.646c0.61-0.117,1.248,0.35,1.255,0.354       C141.557,306.644,141.709,306.67,141.849,306.635z"/>
				</g>
				<g>
					<path fill="#0E538C" d="M127.776,310.125c0.139-0.036,0.262-0.13,0.326-0.27l0,0c0.002-0.006,0.35-0.725,0.948-0.902       c0.303-0.094,0.637-0.027,1.009,0.196c0.231,0.14,0.529,0.066,0.672-0.166c0.14-0.231,0.065-0.532-0.166-0.671       c-0.619-0.372-1.222-0.474-1.806-0.294c-1.016,0.31-1.523,1.381-1.544,1.423c-0.114,0.246-0.008,0.537,0.234,0.652       C127.56,310.141,127.674,310.149,127.776,310.125z"/>
				</g>
			</g>
		</g>
		<g>
			<circle fill="#2A94F4" cx="93.168" cy="177.583" r="13.38"/>
			<g>
				<path fill="#FFFFFF" d="M100.39,177.98c0.548-0.072,1.027-0.466,1.186-1.032c0.211-0.759-0.232-1.544-0.991-1.755l-4.601-1.277      c0.025-0.035,1.444-1.87,1.947-3.681c0.508-1.823-1.74-2.217-2.029-1.171c-0.291,1.047-1.409,2.69-2.833,3.059      c-1.426,0.367-2.367,2.118-2.367,2.118l-0.191,0.69l-0.107,0.39l-0.509,1.83l-0.146,0.526l-0.434,1.559l-0.184,0.662      l-0.579,2.083l8.113,2.255c0.759,0.211,1.543-0.233,1.755-0.991l0,0c0.089-0.319,0.059-0.642-0.059-0.925      c0.525-0.092,0.98-0.475,1.132-1.023c0.101-0.361,0.052-0.729-0.11-1.037c0.574-0.051,1.083-0.449,1.247-1.037      C100.753,178.776,100.648,178.32,100.39,177.98z"/>
				
					<rect x="85.105" y="173.097" transform="matrix(-0.9634 -0.268 0.268 -0.9634 123.6119 371.4005)" fill="#FFFFFF" width="4.089" height="8.336"/>
			</g>
			<path fill="#4779E1" d="M87.435,180.109c-0.08,0.286-0.375,0.455-0.663,0.374c-0.286-0.079-0.454-0.375-0.373-0.661     c0.077-0.287,0.376-0.454,0.662-0.375S87.513,179.824,87.435,180.109z"/>
		</g>
		<g>
			<circle fill="#2A94F4" cx="149.846" cy="260.25" r="13.381"/>
			<g>
				<path fill="#FFFFFF" d="M155.982,256.425c0.406-0.375,0.573-0.972,0.377-1.526c-0.263-0.741-1.077-1.131-1.819-0.867l-4.499,1.6      c0-0.042,0.105-2.359-0.522-4.13c-0.634-1.784-2.697-0.814-2.334,0.208c0.363,1.024,0.395,3.012-0.56,4.131      c-0.955,1.12-0.72,3.094-0.72,3.094l0.24,0.676l0.136,0.38l0.636,1.791l0.184,0.515l0.542,1.523l0.229,0.647l0.724,2.038      l7.935-2.819c0.742-0.263,1.129-1.079,0.866-1.82l0,0c-0.11-0.312-0.319-0.558-0.578-0.724c0.376-0.377,0.528-0.949,0.337-1.486      c-0.125-0.354-0.377-0.625-0.688-0.785c0.441-0.371,0.63-0.99,0.425-1.565C156.737,256.867,156.391,256.556,155.982,256.425z"/>
				
					<rect x="142.695" y="259.281" transform="matrix(-0.9423 0.3347 -0.3347 -0.9423 369.3132 463.2542)" fill="#FFFFFF" width="4.087" height="8.338"/>
			</g>
			<path fill="#4779E1" d="M146.606,265.614c0.1,0.28-0.046,0.588-0.328,0.687c-0.279,0.1-0.587-0.046-0.686-0.326     c-0.102-0.279,0.048-0.589,0.327-0.688C146.198,265.187,146.506,265.335,146.606,265.614z"/>
		</g>
		<g>
			<path fill="#D3D3D3" d="M200.763,154.07c0,1.903-0.768,3.626-2.01,4.877c-1.251,1.255-2.986,2.038-4.904,2.038     c-1.916,0-3.647-0.783-4.896-2.038c-1.242-1.251-2.01-2.974-2.01-4.877c0-3.812,3.094-6.906,6.906-6.906     C197.667,147.164,200.763,150.258,200.763,154.07z"/>
			<path fill="#FFFFFF" d="M198.753,158.357v0.59c-1.251,1.255-2.986,2.038-4.904,2.038c-1.916,0-3.647-0.783-4.896-2.038v-0.59     c0-1.573,1.215-2.843,2.715-2.843h1.178v-0.783c-0.813-0.459-1.38-1.45-1.38-2.613c0-1.594,1.07-2.886,2.384-2.886     c1.321,0,2.392,1.292,2.392,2.886c0,1.163-0.568,2.154-1.379,2.613v0.783h1.178C197.538,155.515,198.753,156.784,198.753,158.357     z"/>
		</g>
		<g>
			<path fill="#D3D3D3" d="M208.937,306.768c0.117-0.159,0.183-0.355,0.183-0.563v-0.128c0-0.521-0.424-0.946-0.944-0.946h-2.182     c0.218-0.815,0.228-2.112-0.9-2.887c-0.777-0.53-1.199-0.334-1.385-0.169c-0.274,0.246-0.318,0.714-0.105,1.108     c0.263,0.485,0.17,1.337-0.091,1.569c-0.405,0.358-0.597,0.588-0.9,1.001c-0.064,0.088-0.132,0.163-0.198,0.229     c-0.067-0.227-0.27-0.395-0.518-0.395h-2.094c-0.303,0-0.547,0.246-0.547,0.547v5.241c0,0.302,0.244,0.548,0.547,0.548h2.094     c0.269,0,0.481-0.198,0.529-0.452c0.146,0.086,0.328,0.144,0.562,0.144h4.422c0.522,0,0.946-0.425,0.946-0.945v-0.129     c0-0.168-0.045-0.328-0.122-0.467c0.368-0.129,0.633-0.48,0.633-0.894v-0.128c0-0.168-0.045-0.328-0.122-0.467     c0.368-0.131,0.633-0.48,0.633-0.894v-0.128C209.376,307.229,209.2,306.936,208.937,306.768z M199.785,311.376l0.017-5.258h2.094     l0.018,0.017l-0.018,5.259L199.785,311.376z M208.844,307.692c0,0.229-0.185,0.416-0.415,0.416l-0.497,0.019l-0.067,0.459     l0.206,0.081c0.16,0.062,0.263,0.214,0.263,0.386v0.128c0,0.229-0.185,0.416-0.414,0.416l-0.498,0.019l-0.067,0.459l0.206,0.081     c0.161,0.062,0.264,0.214,0.264,0.386v0.129c0,0.229-0.186,0.415-0.415,0.415h-4.422c-0.482,0-0.537-0.415-0.544-0.479v-3.957     c0.147-0.103,0.384-0.294,0.597-0.582c0.294-0.397,0.463-0.596,0.824-0.918c0.511-0.454,0.54-1.6,0.206-2.217     c-0.1-0.188-0.086-0.392-0.006-0.463c0.089-0.08,0.35-0.046,0.729,0.212c1.288,0.884,0.616,2.542,0.586,2.613l-0.153,0.368h2.95     c0.228,0,0.414,0.186,0.414,0.414v0.128c0,0.173-0.104,0.325-0.264,0.388l-0.222,0.105l0.105,0.453h0.22     c0.23,0,0.415,0.186,0.415,0.414V307.692z"/>
			<g>
				<path fill="#D3D3D3" d="M247.106,312.598c-0.04,0-0.08-0.008-0.117-0.026c-0.092-0.046-0.149-0.139-0.149-0.239v-1.68h-0.213      c-0.954,0-1.732-0.778-1.732-1.732v-4.054c0-0.955,0.778-1.733,1.732-1.733h5.912c0.954,0,1.731,0.778,1.731,1.733v4.054      c0,0.954-0.777,1.732-1.731,1.732h-2.821l-2.449,1.89C247.22,312.58,247.164,312.598,247.106,312.598z M246.627,303.665      c-0.662,0-1.2,0.538-1.2,1.201v4.054c0,0.662,0.538,1.2,1.2,1.2h0.479c0.146,0,0.266,0.119,0.266,0.267v1.405l2.093-1.615      c0.046-0.036,0.104-0.057,0.162-0.057h2.912c0.662,0,1.2-0.538,1.2-1.2v-4.054c0-0.663-0.538-1.201-1.2-1.201H246.627z"/>
			</g>
			<g>
				<path fill="#D3D3D3" d="M290.057,312.177c-0.014,0-0.028,0-0.043-0.003c-0.128-0.02-0.224-0.131-0.224-0.262      c0-2.258,0.563-3.924,1.676-4.957c0.932-0.865,1.986-1.03,2.482-1.055v-2.082c0-0.105,0.062-0.201,0.16-0.242      c0.096-0.041,0.21-0.023,0.285,0.048l4.068,3.792c0.054,0.05,0.085,0.121,0.085,0.195s-0.031,0.144-0.086,0.195l-4.068,3.727      c-0.077,0.07-0.19,0.089-0.286,0.047c-0.096-0.043-0.158-0.137-0.158-0.242v-2.021c-2.79,0.225-3.631,2.653-3.641,2.68      C290.271,312.105,290.169,312.177,290.057,312.177z M294.123,306.427c-0.287,0-1.379,0.06-2.304,0.925      c-0.807,0.752-1.289,1.903-1.442,3.43c0.614-0.862,1.794-1.953,3.831-2.009c0.074,0.007,0.14,0.024,0.191,0.076      c0.051,0.05,0.08,0.117,0.08,0.189v1.696l3.41-3.127l-3.41-3.18v1.734c0,0.074-0.031,0.145-0.086,0.195      c-0.053,0.05-0.123,0.079-0.197,0.071C294.194,306.427,294.168,306.427,294.123,306.427z"/>
			</g>
		</g>
		<g>
			<path fill="#F2F2F2" d="M257.829,150.836c0,1.39-1.126,2.516-2.514,2.516h-46.221c-1.389,0-2.516-1.126-2.516-2.516l0,0     c0-1.389,1.127-2.514,2.516-2.514h46.221C256.703,148.322,257.829,149.447,257.829,150.836L257.829,150.836z"/>
			<path fill="#F2F2F2" d="M237.085,158.162c0,0.92-0.745,1.665-1.665,1.665h-27.176c-0.919,0-1.665-0.745-1.665-1.665l0,0     c0-0.92,0.746-1.665,1.665-1.665h27.176C236.34,156.497,237.085,157.242,237.085,158.162L237.085,158.162z"/>
		</g>
	</g>
</g>
</svg>